<?xml version="1.0" encoding="utf-8"?>
<!-- Generator: Adobe Illustrator 26.0.1, SVG Export Plug-In . SVG Version: 6.00 Build 0)  -->
<svg version="1.1" id="Ebene_1" xmlns="http://www.w3.org/2000/svg" xmlns:xlink="http://www.w3.org/1999/xlink" x="0px" y="0px"
	 viewBox="0 0 56.7 56.7" style="enable-background:new 0 0 56.7 56.7;" xml:space="preserve">
<style type="text/css">
	.st0{fill:#00A7F5;}
</style>
<path class="st0" d="M28.4,1.4C13.5,1.4,1.4,13.4,1.4,28.3s12.1,26.9,26.9,26.9s26.9-12.1,26.9-26.9c0,0,0,0,0,0
	C55.3,13.4,43.2,1.4,28.4,1.4z M13.4,10.7l1.6,1.6l3.8,3.8L15.8,19l-3.8-3.8l-1.6-1.6L13.4,10.7z M31.7,44.8l-0.5,6.4h-5.9l-0.5-6.4
	c-2.1-0.4-4.1-1.3-5.9-2.5l-4.9,4.2L10,42.4l4.2-4.8c-1.2-1.8-2-3.8-2.4-5.9l-6.4-0.5v-5.9l4.9-0.4c0.3,0.5,0.7,0.9,1.1,1.3
	c1.9,1.9,4.6,3,7.3,3h0.2c0.5,5.2,5.2,8.9,10.4,8.4c0.1,0,0.3,0,0.4-0.1l5.9,5.9C34.3,44.1,33,44.6,31.7,44.8z M40.4,46.4L21.8,27.8
	c-0.8,0.3-1.7,0.4-2.6,0.4c-2.4,0-4.7-0.9-6.4-2.6c-2.3-2.3-3.2-5.7-2.3-8.9l0.4-1.6l5.5,5.4l4.1-4.2l-5.4-5.4l1.6-0.4
	c0.8-0.2,1.6-0.3,2.5-0.4c5,0,9,4,9,9c0,0.9-0.1,1.8-0.4,2.6l18.6,18.6L40.4,46.4z M44.8,31.7c-0.3,1.5-0.8,2.9-1.5,4.2l-5.8-5.8
	c1-5.1-2.4-10.1-7.5-11.1c-0.3-0.1-0.7-0.1-1-0.1c0-2.7-1.1-5.3-3-7.3c-0.3-0.3-0.7-0.7-1.1-0.9l0.4-5.3h5.9l0.5,6.4
	c2.1,0.4,4.1,1.3,5.9,2.4l4.8-4.2l4.2,4.2L42.4,19c1.2,1.8,2,3.8,2.5,5.9l6.4,0.5v5.9L44.8,31.7z"/>
</svg>
