<svg id="Ebene_1" data-name="Ebene 1" xmlns="http://www.w3.org/2000/svg" viewBox="0 0 56.69 56.69"><defs><style>.cls-1{fill:#87433a;}</style></defs><path class="cls-1" d="M28.35,1.47A26.93,26.93,0,1,0,55.28,28.39,26.92,26.92,0,0,0,28.35,1.47ZM42.47,14.3a1.32,1.32,0,0,1-.21.71c-1.57,2.39-2.58,6.23-2.58,10.56s1,8.17,2.58,10.56a1.32,1.32,0,0,1,.21.71v9.35a1.13,1.13,0,0,1-1,1.2H14.62a1.13,1.13,0,0,1-1-1.2V36.84a1.32,1.32,0,0,1,.21-.71c1.56-2.39,2.58-6.23,2.58-10.56s-1-8.17-2.58-10.56a1.32,1.32,0,0,1-.21-.71V12.77a1.12,1.12,0,0,1,1-1.19h3a1.1,1.1,0,0,1,1,1,9,9,0,0,0,9,7.57v0l.41,0,.41,0v0a9,9,0,0,0,9-7.57,1.09,1.09,0,0,1,1-1h3a1.12,1.12,0,0,1,1,1.19Z"/><path class="cls-1" d="M33.18,23.84H22.83a2,2,0,0,0-2,1.95v7.8a1.89,1.89,0,0,0,.29,1l5.18,8.13a2.11,2.11,0,0,0,3.51,0l5.17-8.13a1.81,1.81,0,0,0,.3-1v-7.8A2,2,0,0,0,33.18,23.84Zm.35,9.86a.6.6,0,0,1-.11.34l-4.36,6A.59.59,0,0,1,28,39.68V26.46a1.15,1.15,0,0,1,1.16-1.15H33a.58.58,0,0,1,.58.58Z"/></svg>