<?xml version="1.0" encoding="utf-8"?>
<!-- Generator: Adobe Illustrator 26.0.1, SVG Export Plug-In . SVG Version: 6.00 Build 0)  -->
<svg version="1.1" id="Ebene_1" xmlns="http://www.w3.org/2000/svg" xmlns:xlink="http://www.w3.org/1999/xlink" x="0px" y="0px"
	 viewBox="0 0 56.7 56.7" style="enable-background:new 0 0 56.7 56.7;" xml:space="preserve">
<style type="text/css">
	.st0{fill:#00A7F5;}
</style>
<path class="st0" d="M28.4,24.2h-0.3c1.3,0.7,1.8,2.2,1.2,3.6c-0.7,1.3-2.2,1.8-3.6,1.2c-0.7-0.3-1.2-1-1.4-1.7
	c-0.1,0.4-0.2,0.7-0.1,1.1c0,2.3,1.9,4.2,4.2,4.2s4.2-1.9,4.2-4.2S30.7,24.2,28.4,24.2L28.4,24.2L28.4,24.2z"/>
<path class="st0" d="M28.4,21c-5-0.1-9.6,2.8-11.8,7.4c3.2,6.5,11,9.2,17.5,6.1c2.6-1.3,4.8-3.4,6.1-6.1C38,23.8,33.4,20.9,28.4,21z
	 M28.4,34.4c-3.3,0-6-2.7-6-6s2.7-6,6-6s6,2.7,6,6v0C34.3,31.7,31.7,34.4,28.4,34.4L28.4,34.4z"/>
<path class="st0" d="M28.4,1.5C13.5,1.5,1.4,13.5,1.4,28.4s12.1,26.9,26.9,26.9s26.9-12.1,26.9-26.9c0,0,0,0,0,0
	C55.3,13.5,43.2,1.5,28.4,1.5C28.4,1.5,28.4,1.5,28.4,1.5z M43.5,35c0.6-1.2,2-1.8,3.3-1.3s1.8,2,1.3,3.3c-0.6,1.2-2,1.8-3.3,1.3
	c-0.6-0.2-1-0.7-1.3-1.3h-1.9v2.1l-2.5,2.5h-2.1v2c1.2,0.6,1.8,2,1.3,3.3s-2,1.8-3.3,1.3c-1.2-0.6-1.8-2-1.3-3.3
	c0.2-0.6,0.7-1,1.3-1.3v-2h-5.6v2c1.2,0.6,1.8,2,1.3,3.3c-0.6,1.2-2,1.8-3.3,1.3c-1.2-0.6-1.8-2-1.3-3.3c0.2-0.6,0.7-1,1.3-1.3v-2
	h-5.6v2c1.2,0.6,1.8,2,1.3,3.3c-0.6,1.2-2,1.8-3.3,1.3c-1.2-0.6-1.8-2-1.3-3.3c0.2-0.6,0.7-1,1.3-1.3v-2h-2.1l-2.6-2.5v-2.2h-1.9
	c-0.6,1.2-2,1.8-3.3,1.3s-1.8-2-1.3-3.3c0.6-1.2,2-1.8,3.3-1.3c0.6,0.2,1,0.7,1.3,1.3h1.9v-5.6h-1.9c-0.6,1.2-2,1.8-3.3,1.3
	c-1.2-0.6-1.8-2-1.3-3.3c0.6-1.2,2-1.8,3.3-1.3c0.6,0.2,1,0.7,1.3,1.3h1.9v-5.6h-1.9c-0.6,1.2-2,1.8-3.3,1.3c-1.2-0.6-1.8-2-1.3-3.3
	c0.6-1.2,2-1.8,3.3-1.3c0.6,0.2,1,0.7,1.3,1.3h1.9v-2.1l2.6-2.6h2.1v-1.9c-1.2-0.6-1.8-2-1.3-3.3c0.6-1.2,2-1.8,3.3-1.3
	c1.2,0.6,1.8,2,1.3,3.3c-0.2,0.6-0.7,1-1.3,1.3v1.9h5.6v-1.9c-1.2-0.6-1.8-2-1.3-3.3c0.6-1.2,2-1.8,3.3-1.3c1.2,0.6,1.8,2,1.3,3.3
	c-0.2,0.6-0.7,1-1.3,1.3v1.9H35v-1.9c-1.2-0.6-1.8-2-1.2-3.2s2-1.8,3.2-1.2c1.2,0.6,1.8,2,1.2,3.2c-0.2,0.6-0.7,1-1.2,1.2v1.9h2.1
	l2.5,2.6v2.1h1.9c0.6-1.2,2-1.8,3.3-1.3c1.2,0.6,1.8,2,1.3,3.3c-0.6,1.2-2,1.8-3.3,1.3c-0.6-0.2-1-0.7-1.3-1.3h-2v5.6h1.9
	c0.6-1.2,2-1.8,3.3-1.3c1.2,0.6,1.8,2,1.3,3.3c-0.6,1.2-2,1.8-3.3,1.3c-0.6-0.2-1-0.7-1.3-1.3h-1.9V35H43.5z"/>
</svg>
