<?xml version="1.0" encoding="utf-8"?>
<!-- Generator: Adobe Illustrator 26.0.1, SVG Export Plug-In . SVG Version: 6.00 Build 0)  -->
<svg version="1.1" id="Ebene_1" xmlns="http://www.w3.org/2000/svg" xmlns:xlink="http://www.w3.org/1999/xlink" x="0px" y="0px"
	 viewBox="0 0 56.7 56.7" style="enable-background:new 0 0 56.7 56.7;" xml:space="preserve">
<style type="text/css">
	.st0{fill:#00A7F5;}
</style>
<rect x="28.7" y="37.3" class="st0" width="2.3" height="0.5"/>
<rect x="28.7" y="36" class="st0" width="2.3" height="0.5"/>
<rect x="31.7" y="41.1" class="st0" width="2.3" height="0.5"/>
<rect x="31.7" y="42.4" class="st0" width="2.3" height="0.5"/>
<rect x="25.7" y="37.3" class="st0" width="2.3" height="0.5"/>
<rect x="31.7" y="39.8" class="st0" width="2.3" height="0.5"/>
<rect x="25.7" y="36" class="st0" width="2.3" height="0.5"/>
<rect x="28.7" y="41.1" class="st0" width="2.3" height="0.5"/>
<rect x="28.7" y="42.4" class="st0" width="2.3" height="0.5"/>
<rect x="28.7" y="39.8" class="st0" width="2.3" height="0.5"/>
<rect x="34.7" y="38.6" class="st0" width="2.3" height="0.5"/>
<rect x="25.7" y="38.6" class="st0" width="2.3" height="0.5"/>
<rect x="34.7" y="37.3" class="st0" width="2.3" height="0.5"/>
<rect x="31.7" y="38.6" class="st0" width="2.3" height="0.5"/>
<rect x="19.8" y="16.5" class="st0" width="5.2" height="5.2"/>
<rect x="34.7" y="39.8" class="st0" width="2.3" height="0.5"/>
<rect x="34.7" y="36" class="st0" width="2.3" height="0.5"/>
<rect x="31.7" y="36" class="st0" width="2.3" height="0.5"/>
<rect x="34.7" y="41.1" class="st0" width="2.3" height="0.5"/>
<rect x="31.7" y="37.3" class="st0" width="2.3" height="0.5"/>
<rect x="34.7" y="42.4" class="st0" width="2.3" height="0.5"/>
<rect x="28.7" y="38.6" class="st0" width="2.3" height="0.5"/>
<rect x="19.6" y="39.8" class="st0" width="2.3" height="0.5"/>
<rect x="19.6" y="38.6" class="st0" width="2.3" height="0.5"/>
<rect x="19.6" y="37.3" class="st0" width="2.3" height="0.5"/>
<rect x="19.6" y="36" class="st0" width="2.3" height="0.5"/>
<rect x="19.6" y="41.1" class="st0" width="2.3" height="0.5"/>
<path class="st0" d="M28.4,1.5C13.5,1.5,1.4,13.5,1.4,28.4s12.1,26.9,26.9,26.9s26.9-12.1,26.9-26.9c0,0,0,0,0,0
	C55.3,13.5,43.2,1.5,28.4,1.5C28.4,1.5,28.4,1.5,28.4,1.5z M43.8,17.5h2.4l1.6-1.6H51v1h-2.8l-1.6,1.6h-2.8V17.5z M43.8,25.7h4.1
	l1.6-1.6h2.6v1h-2.1l-1.6,1.6h-4.5V25.7z M43.8,29.8h4.5l1.6,1.6h2.1v1h-2.6l-1.6-1.6h-4.1V29.8z M12.8,39.1h-2.5l-1.6,1.6H5.6v-1
	h2.8l1.6-1.6h2.8L12.8,39.1z M12.8,33.4H9.6l-1.7,1.7H3.2v-1h4.3l1.7-1.7h3.6L12.8,33.4z M12.8,30.8H8.7l-1.6,1.6H4.6v-1h2.1
	l1.6-1.6h4.5L12.8,30.8z M12.8,26.7H8.3l-1.6-1.6H4.6v-1h2.6l1.6,1.6h4.1L12.8,26.7z M12.8,24.1H9.2l-1.7-1.7H3.2v-1h4.7l1.7,1.7
	h3.2L12.8,24.1z M12.8,18.5H10l-1.6-1.6H5.6v-1h3.2l1.6,1.6h2.4L12.8,18.5z M42.8,44.6c0,1.8-1.4,3.2-3.2,3.2H17.1
	c-1.8,0-3.2-1.5-3.2-3.2V12.2c0-1.8,1.4-3.2,3.2-3.2h22.4c1.8,0,3.2,1.5,3.2,3.2L42.8,44.6z M51,40.7h-3.2l-1.6-1.6h-2.4v-1h2.8
	l1.6,1.6H51V40.7z M53.4,35.1h-4.7L47,33.4h-3.2v-1h3.6l1.7,1.7h4.3L53.4,35.1z M49.1,22.4l-1.7,1.7h-3.6v-1H47l1.7-1.7h4.7v1H49.1z
	"/>
<rect x="25.7" y="39.8" class="st0" width="2.3" height="0.5"/>
<rect x="19.6" y="42.4" class="st0" width="2.3" height="0.5"/>
<path class="st0" d="M39.6,11.9H17.1c-0.1,0-0.2,0.1-0.2,0.2v32.4c0,0.1,0.1,0.2,0.2,0.2h22.4c0.1,0,0.2-0.1,0.2-0.2V12.2
	C39.8,12.1,39.7,11.9,39.6,11.9z M27.3,15.4h10v1h-10V15.4z M27.3,18.5h4.3v1h-4.3V18.5z M27.3,21.6h5.4v1h-5.4V21.6z M18.8,15.4
	h7.2v7.2h-7.2L18.8,15.4z M18.8,26.2h1v6.5l2.5-1.7l2,0.8l3-1.9l1.5,1.1l3.7-3.7l1.6,0.3l3-1.6l0.4,0.6l-3.2,1.7L32.8,28l-3.9,3.9
	l-1.6-1.1l-2.9,1.8l-2-0.8L20.7,33h16.6v1H18.8L18.8,26.2z M37.7,43.7H18.9v-8.4h18.8V43.7z"/>
<rect x="25.7" y="42.4" class="st0" width="2.3" height="0.5"/>
<rect x="22.7" y="36" class="st0" width="2.3" height="0.5"/>
<rect x="22.7" y="37.3" class="st0" width="2.3" height="0.5"/>
<rect x="22.7" y="42.4" class="st0" width="2.3" height="0.5"/>
<rect x="25.7" y="41.1" class="st0" width="2.3" height="0.5"/>
<rect x="22.7" y="39.8" class="st0" width="2.3" height="0.5"/>
<rect x="22.7" y="38.6" class="st0" width="2.3" height="0.5"/>
<rect x="22.7" y="41.1" class="st0" width="2.3" height="0.5"/>
</svg>
