<svg id="Ebene_1" data-name="Ebene 1" xmlns="http://www.w3.org/2000/svg" viewBox="0 0 56.69 56.69"><defs><style>.cls-1{fill:#87433a;}</style></defs><path class="cls-1" d="M28.35,1.37A26.93,26.93,0,1,0,55.28,28.3,26.93,26.93,0,0,0,28.35,1.37ZM13.4,10.73,15,12.3l3.77,3.77L15.83,19l-3.78-3.78-1.57-1.56ZM31.67,44.84l-.46,6.39H25.32l-.46-6.39A16.54,16.54,0,0,1,19,42.39L14.13,46.6,10,42.43l4.21-4.85a16.83,16.83,0,0,1-2.45-5.88l-6.39-.45v-5.9L10.28,25a10,10,0,0,0,1.07,1.29,10.32,10.32,0,0,0,7.34,3l.19,0a9.42,9.42,0,0,0,10.8,8.32l5.88,5.88A16.7,16.7,0,0,1,31.67,44.84Zm8.75,1.53L21.83,27.78a9.09,9.09,0,0,1-2.6.38,8.93,8.93,0,0,1-6.36-2.63,9,9,0,0,1-2.29-8.86L11,15.1l5.46,5.45,4.15-4.16-5.45-5.45,1.57-.45a9.08,9.08,0,0,1,2.49-.35,9,9,0,0,1,8.62,11.6L46.46,40.33ZM44.81,31.7a16.6,16.6,0,0,1-1.47,4.18l-5.8-5.8a9.44,9.44,0,0,0-8.47-11.19,10.37,10.37,0,0,0-3-7.29,9.85,9.85,0,0,0-1.1-.95l.38-5.29h5.89l.46,6.39a16.91,16.91,0,0,1,5.88,2.45L42.4,10l4.17,4.17L42.36,19a16.83,16.83,0,0,1,2.45,5.88l6.39.45v5.9Z"/></svg>