<svg id="Ebene_1" data-name="Ebene 1" xmlns="http://www.w3.org/2000/svg" viewBox="0 0 56.69 56.69"><defs><style>.cls-1{fill:#87433a;}</style></defs><rect class="cls-1" x="28.68" y="37.28" width="2.26" height="0.53"/><rect class="cls-1" x="28.68" y="36" width="2.26" height="0.53"/><rect class="cls-1" x="31.7" y="41.12" width="2.26" height="0.53"/><rect class="cls-1" x="31.7" y="42.4" width="2.26" height="0.53"/><rect class="cls-1" x="25.67" y="37.28" width="2.26" height="0.53"/><rect class="cls-1" x="31.7" y="39.84" width="2.26" height="0.53"/><rect class="cls-1" x="25.67" y="36" width="2.26" height="0.53"/><rect class="cls-1" x="28.68" y="41.12" width="2.26" height="0.53"/><rect class="cls-1" x="28.68" y="42.4" width="2.26" height="0.53"/><rect class="cls-1" x="28.68" y="39.84" width="2.26" height="0.53"/><rect class="cls-1" x="34.71" y="38.56" width="2.26" height="0.53"/><rect class="cls-1" x="25.67" y="38.56" width="2.26" height="0.53"/><rect class="cls-1" x="34.71" y="37.28" width="2.26" height="0.53"/><rect class="cls-1" x="31.7" y="38.56" width="2.26" height="0.53"/><rect class="cls-1" x="19.78" y="16.45" width="5.16" height="5.16"/><rect class="cls-1" x="34.71" y="39.84" width="2.26" height="0.53"/><rect class="cls-1" x="34.71" y="36" width="2.26" height="0.53"/><rect class="cls-1" x="31.7" y="36" width="2.26" height="0.53"/><rect class="cls-1" x="34.71" y="41.12" width="2.26" height="0.53"/><rect class="cls-1" x="31.7" y="37.28" width="2.26" height="0.53"/><rect class="cls-1" x="34.71" y="42.4" width="2.26" height="0.53"/><rect class="cls-1" x="28.68" y="38.56" width="2.26" height="0.53"/><rect class="cls-1" x="19.65" y="39.84" width="2.26" height="0.53"/><rect class="cls-1" x="19.65" y="38.56" width="2.26" height="0.53"/><rect class="cls-1" x="19.65" y="37.28" width="2.26" height="0.53"/><rect class="cls-1" x="19.65" y="36" width="2.26" height="0.53"/><rect class="cls-1" x="19.65" y="41.12" width="2.26" height="0.53"/><path class="cls-1" d="M28.35,1.47A26.93,26.93,0,1,0,55.28,28.39,26.92,26.92,0,0,0,28.35,1.47Zm15.5,16h2.4l1.58-1.58H51v1H48.25l-1.58,1.58H43.85Zm0,8.27h4.07l1.59-1.59h2.56v1H49.93l-1.6,1.59H43.85Zm0,4.1h4.48l1.6,1.6h2.14v1H49.51l-1.59-1.6H43.85Zm-31,9.28H10.39L8.81,40.69H5.63v-1H8.39L10,38.11H12.8Zm0-5.67H9.63l-1.69,1.7H3.25v-1H7.52l1.7-1.7H12.8Zm0-2.61H8.73l-1.6,1.6H4.57v-1H6.72l1.59-1.6H12.8Zm0-4.1H8.31L6.72,25.14H4.57v-1H7.13l1.6,1.59H12.8Zm0-2.61H9.22l-1.7-1.69H3.25v-1H7.94l1.69,1.69H12.8Zm0-5.66H10L8.39,16.88H5.63v-1H8.81l1.58,1.58H12.8Zm30,26.14a3.25,3.25,0,0,1-3.24,3.25H17.12a3.25,3.25,0,0,1-3.24-3.25V12.19a3.25,3.25,0,0,1,3.24-3.25H39.57a3.25,3.25,0,0,1,3.24,3.25ZM51,40.69H47.83l-1.58-1.58h-2.4v-1h2.82l1.58,1.58H51Zm2.39-5.55H48.71L47,33.44H43.85v-1h3.58l1.69,1.7H53.4ZM49.12,22.43l-1.69,1.69H43.85v-1H47l1.7-1.69H53.4v1Z"/><rect class="cls-1" x="25.67" y="39.84" width="2.26" height="0.53"/><rect class="cls-1" x="19.65" y="42.4" width="2.26" height="0.53"/><path class="cls-1" d="M39.57,11.94H17.12a.25.25,0,0,0-.24.25V44.6a.25.25,0,0,0,.24.25H39.57a.25.25,0,0,0,.24-.25V12.19A.25.25,0,0,0,39.57,11.94ZM27.34,15.45h10v1h-10Zm0,3.08H31.6v1H27.34Zm0,3.08H32.7v1H27.34Zm-8.56-6.16h7.16v7.16H18.78Zm0,10.78h1v6.48L22.31,31l2,.77,3-1.91L28.85,31l3.72-3.73,1.62.34,3-1.65.36.65L34.3,28.35,32.82,28l-3.89,3.88-1.6-1.14-2.91,1.85-2-.78L20.7,33H37.34v1H18.78ZM37.72,43.68H18.9V35.25H37.72Z"/><rect class="cls-1" x="25.67" y="42.4" width="2.26" height="0.53"/><rect class="cls-1" x="22.66" y="36" width="2.26" height="0.53"/><rect class="cls-1" x="22.66" y="37.28" width="2.26" height="0.53"/><rect class="cls-1" x="22.66" y="42.4" width="2.26" height="0.53"/><rect class="cls-1" x="25.67" y="41.12" width="2.26" height="0.53"/><rect class="cls-1" x="22.66" y="39.84" width="2.26" height="0.53"/><rect class="cls-1" x="22.66" y="38.56" width="2.26" height="0.53"/><rect class="cls-1" x="22.66" y="41.12" width="2.26" height="0.53"/></svg>