<?xml version="1.0" encoding="utf-8"?>
<!-- Generator: Adobe Illustrator 26.0.1, SVG Export Plug-In . SVG Version: 6.00 Build 0)  -->
<svg version="1.1" id="Ebene_1" xmlns="http://www.w3.org/2000/svg" xmlns:xlink="http://www.w3.org/1999/xlink" x="0px" y="0px"
	 viewBox="0 0 56.7 56.7" style="enable-background:new 0 0 56.7 56.7;" xml:space="preserve">
<style type="text/css">
	.st0{fill:#00A7F5;}
</style>
<path class="st0" d="M28.4,1.5C13.5,1.5,1.4,13.5,1.4,28.4s12.1,26.9,26.9,26.9s26.9-12.1,26.9-26.9c0,0,0,0,0,0
	C55.3,13.5,43.2,1.5,28.4,1.5C28.4,1.5,28.4,1.5,28.4,1.5z M27.3,50l-4.5-5.2L18.4,50V28.4l2.9,5h6.1L27.3,50z M38.3,28.7v22.8
	l-4.5-5.2l-4.5,5.2V33.4h6.1l2.9-5L38.3,28.7z M35.1,30.7H21.6L14.9,19l6.7-11.6h13.4L41.8,19L35.1,30.7z"/>
<path class="st0" d="M33,13.5c1.3,1.1,2.2,2.6,2.5,4.2l2.5-4.2L33,13.5z"/>
<path class="st0" d="M23.7,13.5h-4.9l2.5,4.2C21.5,16.1,22.4,14.6,23.7,13.5z"/>
<path class="st0" d="M28.4,26.2c-0.8,0-1.7-0.1-2.5-0.4l2.5,4.2l2.5-4.2C30,26.1,29.2,26.2,28.4,26.2z"/>
<circle class="st0" cx="28.4" cy="19" r="5.8"/>
</svg>
