<svg id="Ebene_1" data-name="Ebene 1" xmlns="http://www.w3.org/2000/svg" viewBox="0 0 56.69 56.69"><defs><style>.cls-1{fill:#87433a;}</style></defs><path class="cls-1" d="M31.94,44.2a17.57,17.57,0,0,1,0-31.61V1.71a26.62,26.62,0,0,0-3.59-.24,26.93,26.93,0,1,0,0,53.85,26.62,26.62,0,0,0,3.59-.24Z"/><path class="cls-1" d="M39.44,17.23a11.06,11.06,0,0,0-4,.82V38.74a11.06,11.06,0,0,0,4,.82Z"/><path class="cls-1" d="M28.44,28.39a11.12,11.12,0,0,0,3.5,8.11V20.29A11.12,11.12,0,0,0,28.44,28.39Z"/><path class="cls-1" d="M35.41,2.41v8.93a17.24,17.24,0,0,1,4-.51V6.39h2.4V11a17.43,17.43,0,0,1,3.46.81v7a11.42,11.42,0,0,0-3.46-1.34V39.34A11.19,11.19,0,0,0,45.3,38v7a17.43,17.43,0,0,1-3.46.81V50.4h-2.4V46a17.24,17.24,0,0,1-4-.51v8.93a26.93,26.93,0,0,0,0-52Z"/></svg>