<?xml version="1.0" encoding="UTF-8"?><svg id="Ebene_2" xmlns="http://www.w3.org/2000/svg" viewBox="0 0 100 100"><defs><style>.cls-1{fill:#f9faec;}</style></defs><path class="cls-1" d="m82.24,54.34h-8.02c-2.05,11.52-12.11,20.26-24.21,20.26s-22.16-8.75-24.21-20.26h-8.02c-2.97,0-5.06,2.92-4.1,5.74l5.68,16.65c.6,1.76,2.25,2.94,4.1,2.94h53.11c1.86,0,3.51-1.18,4.1-2.94l5.68-16.65c.96-2.81-1.13-5.74-4.1-5.74Z"/><path class="cls-1" d="m93.83,20.34H6.17c-2.97,0-5.06,2.92-4.1,5.74l5.68,16.65c.6,1.76,2.25,2.94,4.1,2.94h13.94c2.05-11.52,12.11-20.26,24.21-20.26s22.16,8.75,24.21,20.26h13.94c1.86,0,3.51-1.18,4.1-2.94l5.68-16.65c.96-2.81-1.13-5.74-4.1-5.74Z"/><path class="cls-1" d="m50,69.75c-10.89,0-19.75-8.86-19.75-19.75s8.86-19.75,19.75-19.75,19.75,8.86,19.75,19.75-8.86,19.75-19.75,19.75Zm0-35.97c-8.94,0-16.22,7.28-16.22,16.22s7.28,16.22,16.22,16.22,16.22-7.28,16.22-16.22-7.28-16.22-16.22-16.22Z"/><path class="cls-1" d="m50,37.6c-.27,0-.54.02-.81.04,2.57,1.3,4.33,3.95,4.33,7.02,0,4.35-3.52,7.87-7.87,7.87-3.64,0-6.69-2.47-7.59-5.82-.29,1.05-.46,2.15-.46,3.29,0,6.85,5.55,12.4,12.4,12.4s12.4-5.55,12.4-12.4-5.55-12.4-12.4-12.4Z"/></svg>