<?xml version="1.0" encoding="UTF-8"?><svg id="Ebene_2" xmlns="http://www.w3.org/2000/svg" viewBox="0 0 100 100"><defs><style>.cls-1{fill:#f9faec;}</style></defs><path class="cls-1" d="m37.54,73.62h35.15c6.8,2.41,14.2,2.55,21.09.38l1.22-.38h0c-7.62,6.75-17.45,10.48-27.64,10.48h-29.83v6.08h-3.38v-6.08H6.77l-1.77-1.77v-8.7h29.15v-6.08h3.3l.08,6.08Z"/><g><path class="cls-1" d="m30.68,19.6h57.04l-6.55-10.05H20.66c4.5,4.71,8.8,9.07,10.02,10.05Z"/><path class="cls-1" d="m81.48,31.23h6.76s0-8.57,0-8.57H30.25c-.77,0-1.47-.04-13.81-13.11H6.36v15.17c0,3.6,2.92,6.51,6.51,6.51h28.97l3.64,9.78c.45,1.2,1.6,2,2.88,2h13.13l10.86,22.75c1.03,2.16,3.61,3.07,5.77,2.04l13.04-6.23c2.16-1.03,3.07-3.61,2.04-5.77l-11.73-24.58Zm-31.07,8.64c-1.2,0-2.28-.75-2.7-1.87l-2.52-6.76h10.68s4.12,8.64,4.12,8.64h-9.59Z"/></g></svg>