<?xml version="1.0" encoding="utf-8"?>
<!-- Generator: Adobe Illustrator 26.0.1, SVG Export Plug-In . SVG Version: 6.00 Build 0)  -->
<svg version="1.1" id="Ebene_1" xmlns="http://www.w3.org/2000/svg" xmlns:xlink="http://www.w3.org/1999/xlink" x="0px" y="0px"
	 viewBox="0 0 56.7 56.7" style="enable-background:new 0 0 56.7 56.7;" xml:space="preserve">
<style type="text/css">
	.st0{fill:#00A7F5;}
</style>
<polygon class="st0" points="26.9,21.6 30.1,23 33.2,19.9 29.8,18.7 "/>
<polygon class="st0" points="23.5,36.9 26.9,38.1 29.8,35.2 26.6,33.8 "/>
<path class="st0" d="M28.4,1.5C13.5,1.5,1.4,13.5,1.4,28.4s12.1,26.9,26.9,26.9s26.9-12.1,26.9-26.9c0,0,0,0,0,0
	C55.3,13.5,43.2,1.5,28.4,1.5C28.4,1.5,28.4,1.5,28.4,1.5z M25.9,50.9l-4.9-1l-2.9-3l1.9-1.8L8.6,41l2.9-8.3l10.7,3.8l4.1-4.2l4.4,2
	l9.6-9.6l5.9,5.9L25.9,50.9z M45.2,24.1l-10.7-3.8l-4.1,4.1l-4.4-2l-9.6,9.6l-5.9-5.9L30.8,5.9l4.9,1l2.9,2.9l-1.8,1.8l11.4,4
	L45.2,24.1z"/>
</svg>
