<?xml version="1.0" encoding="UTF-8"?><svg id="Ebene_2" xmlns="http://www.w3.org/2000/svg" viewBox="0 0 100 100"><defs><style>.cls-1{fill:#f9faec;}</style></defs><path class="cls-1" d="m84.23,52.08c.86,1.96,2.81,3.33,5.08,3.33,3.07,0,5.55-2.49,5.55-5.55s-2.48-5.55-5.55-5.55c-2.27,0-4.22,1.37-5.08,3.33h-4.35v-12.67h4.35c.86,1.96,2.81,3.33,5.08,3.33,3.07,0,5.55-2.48,5.55-5.55s-2.48-5.55-5.55-5.55c-2.27,0-4.22,1.37-5.08,3.33h-4.35v-4.81c-2.23-2.23-3.5-3.5-5.74-5.74h-4.81v-4.35c1.96-.86,3.33-2.81,3.33-5.08,0-3.07-2.49-5.55-5.55-5.55s-5.55,2.48-5.55,5.55c0,2.27,1.37,4.22,3.33,5.08v4.35h-12.67v-4.35c1.96-.86,3.33-2.81,3.33-5.08,0-3.07-2.48-5.55-5.55-5.55s-5.55,2.48-5.55,5.55c0,2.27,1.37,4.22,3.33,5.08v4.35h-12.67v-4.35c1.96-.86,3.33-2.81,3.33-5.08,0-3.07-2.48-5.55-5.55-5.55s-5.55,2.48-5.55,5.55c0,2.27,1.37,4.22,3.33,5.08v4.35h-4.81c-2.23,2.23-3.5,3.5-5.74,5.74v4.81h-4.35c-.86-1.96-2.81-3.33-5.08-3.33-3.07,0-5.55,2.49-5.55,5.55s2.48,5.55,5.55,5.55c2.27,0,4.22-1.37,5.08-3.33h4.35v12.67h-4.35c-.86-1.96-2.81-3.33-5.08-3.33-3.07,0-5.55,2.48-5.55,5.55s2.48,5.55,5.55,5.55c2.27,0,4.22-1.37,5.08-3.33h4.35v12.67h-4.35c-.86-1.96-2.81-3.33-5.08-3.33-3.07,0-5.55,2.48-5.55,5.55s2.48,5.55,5.55,5.55c2.27,0,4.22-1.37,5.08-3.33h4.35v4.81c2.23,2.23,3.5,3.5,5.74,5.74h4.81v4.62c-1.96.86-3.33,2.81-3.33,5.08,0,3.07,2.49,5.55,5.55,5.55s5.55-2.48,5.55-5.55c0-2.27-1.37-4.22-3.33-5.08v-4.62h12.67v4.62c-1.96.86-3.33,2.81-3.33,5.08,0,3.07,2.49,5.55,5.55,5.55s5.55-2.48,5.55-5.55c0-2.27-1.37-4.22-3.33-5.08v-4.62h12.67v4.62c-1.96.86-3.33,2.81-3.33,5.08,0,3.07,2.48,5.55,5.55,5.55s5.55-2.48,5.55-5.55c0-2.27-1.37-4.22-3.33-5.08v-4.62h.07l-21.6-21.6-14.08-3.77-3.78-14.1.72-.72,8.94,8.94,6.06,1.62,4.44-4.44-1.62-6.06-8.94-8.94.72-.72,14.1,3.78,3.77,14.08,21.74,21.74v-.34h4.35c.86,1.96,2.81,3.33,5.08,3.33,3.07,0,5.55-2.48,5.55-5.55s-2.48-5.55-5.55-5.55c-2.27,0-4.22,1.37-5.08,3.33h-4.35v-12.67h4.35Z"/></svg>