<?xml version="1.0" encoding="utf-8"?>
<!-- Generator: Adobe Illustrator 26.0.1, SVG Export Plug-In . SVG Version: 6.00 Build 0)  -->
<svg version="1.1" id="Ebene_1" xmlns="http://www.w3.org/2000/svg" xmlns:xlink="http://www.w3.org/1999/xlink" x="0px" y="0px"
	 viewBox="0 0 56.7 56.7" style="enable-background:new 0 0 56.7 56.7;" xml:space="preserve">
<style type="text/css">
	.st0{fill:#00A7F5;}
</style>
<path class="st0" d="M31.9,44.2c-8.7-4.2-12.4-14.8-8.1-23.5c1.7-3.5,4.6-6.4,8.1-8.1V1.7c-1.2-0.2-2.4-0.2-3.6-0.2
	C13.5,1.2,1.2,13,0.9,27.9S12.4,55,27.3,55.3c0.3,0,0.7,0,1,0c1.2,0,2.4-0.1,3.6-0.2V44.2z"/>
<path class="st0" d="M39.4,17.2c-1.4,0-2.7,0.3-4,0.8v20.7c1.3,0.5,2.6,0.8,4,0.8V17.2z"/>
<path class="st0" d="M28.4,28.4c0,3.1,1.3,6,3.5,8.1V20.3C29.7,22.4,28.4,25.3,28.4,28.4z"/>
<path class="st0" d="M35.4,2.4v8.9c1.3-0.3,2.7-0.5,4-0.5V6.4h2.4V11c1.2,0.2,2.3,0.4,3.5,0.8v7c-1.1-0.6-2.2-1.1-3.5-1.3v21.9
	c1.2-0.2,2.4-0.7,3.5-1.3v7c-1.1,0.4-2.3,0.7-3.5,0.8v4.6h-2.4V46c-1.3,0-2.7-0.2-4-0.5v8.9c14.4-3.9,22.9-18.7,19-33
	C51.9,12.1,44.7,4.9,35.4,2.4L35.4,2.4z"/>
</svg>
