<?xml version="1.0" encoding="UTF-8"?><svg id="Ebene_2" xmlns="http://www.w3.org/2000/svg" viewBox="0 0 100 100"><defs><style>.cls-1{fill:#f9faec;}</style></defs><path class="cls-1" d="m30.08,30.11h58.82l-6.76-10.37H19.74c4.64,4.86,9.07,9.35,10.33,10.37Z"/><path class="cls-1" d="m82.47,42.11h6.97s0-8.84,0-8.84H29.64c-.79,0-1.52-.04-14.24-13.52H5v15.64c0,3.71,3.01,6.72,6.72,6.72h29.88l3.75,10.08c.46,1.24,1.65,2.07,2.97,2.07h13.54l11.2,23.46c1.06,2.22,3.72,3.17,5.95,2.1l13.45-6.42c2.22-1.06,3.17-3.72,2.1-5.95l-12.1-25.34Zm-32.04,8.91c-1.24,0-2.35-.77-2.78-1.93l-2.6-6.98h11.01s4.25,8.91,4.25,8.91h-9.89Z"/></svg>