<svg id="Ebene_1" data-name="Ebene 1" xmlns="http://www.w3.org/2000/svg" viewBox="0 0 56.69 56.69"><defs><style>.cls-1{fill:#87433a;}</style></defs><path class="cls-1" d="M28.35,24.22l-.28,0a2.65,2.65,0,1,1-3.74,3.05,4,4,0,0,0-.15,1.1,4.17,4.17,0,1,0,4.17-4.17Z"/><path class="cls-1" d="M28.35,21a12.87,12.87,0,0,0-11.78,7.37,13.09,13.09,0,0,0,23.56,0A12.89,12.89,0,0,0,28.35,21Zm0,13.42a6,6,0,1,1,6-6A6.05,6.05,0,0,1,28.35,34.44Z"/><path class="cls-1" d="M28.35,1.47A26.93,26.93,0,1,0,55.28,28.39,26.92,26.92,0,0,0,28.35,1.47ZM43.55,35a2.47,2.47,0,1,1,0,2H41.62v2.14l-2.55,2.55H36.94v2a2.47,2.47,0,1,1-2,0v-2H29.33v2a2.47,2.47,0,1,1-2,0v-2H21.73v2a2.47,2.47,0,1,1-2,0v-2H17.62l-2.55-2.55V36.92H13.14a2.47,2.47,0,1,1,0-2h1.93V29.32H13.14a2.47,2.47,0,1,1,0-2h1.93V21.72H13.14a2.47,2.47,0,1,1,0-2h1.93V17.61l2.55-2.55h2.14V13.13a2.47,2.47,0,1,1,2,0v1.93h5.63V13.13a2.47,2.47,0,1,1,2,0v1.93H35V13.13a2.46,2.46,0,1,1,2,0v1.93h2.13l2.55,2.55v2.14h1.93a2.47,2.47,0,1,1,0,2H41.62v5.63h1.93a2.47,2.47,0,1,1,0,2H41.62V35Z"/></svg>