<?xml version="1.0" encoding="utf-8"?>
<!-- Generator: Adobe Illustrator 26.0.1, SVG Export Plug-In . SVG Version: 6.00 Build 0)  -->
<svg version="1.1" id="Ebene_1" xmlns="http://www.w3.org/2000/svg" xmlns:xlink="http://www.w3.org/1999/xlink" x="0px" y="0px"
	 viewBox="0 0 56.7 56.7" style="enable-background:new 0 0 56.7 56.7;" xml:space="preserve">
<style type="text/css">
	.st0{fill:#00A7F5;}
</style>
<path class="st0" d="M27.1,32.8c0-1.1,0.1-2.1,0.1-3.2c-1.1,0-2.1,0-3.2,0.1L27.1,32.8z"/>
<path class="st0" d="M29.5,27.2c0.9,0,1.8,0,2.7,0l-2.7-2.7C29.5,25.4,29.5,26.3,29.5,27.2z"/>
<path class="st0" d="M13.1,32.7l11,11c0.5-0.8,0.9-1.6,1.2-2.4l-9.9-9.9C14.6,31.8,13.8,32.2,13.1,32.7z"/>
<path class="st0" d="M20.9,29.9c-1,0.1-2,0.4-3,0.6l8.3,8.3c0.3-1,0.5-2,0.6-3L20.9,29.9L20.9,29.9z"/>
<path class="st0" d="M28.4,1.5C13.5,1.5,1.4,13.5,1.4,28.4s12.1,26.9,26.9,26.9s26.9-12.1,26.9-26.9c0,0,0,0,0,0
	C55.3,13.5,43.2,1.5,28.4,1.5C28.4,1.5,28.4,1.5,28.4,1.5z M47.5,24.2c-6,5-12.1,5.3-18,5.4c0,5.9-0.3,11.9-5.4,18
	c0.6,1.4,0,3-1.4,3.6c-1.4,0.6-3,0-3.6-1.4c-0.5-1-0.2-2.3,0.6-3.1c0.7-0.8,1.8-1,2.8-0.7l0.3-0.3L11.1,34c-0.1,0.1-0.2,0.2-0.4,0.3
	c0.5,1.5-0.3,3-1.8,3.5c-1.5,0.5-3-0.3-3.5-1.8c-0.5-1.5,0.3-3,1.8-3.5c0.6-0.2,1.3-0.2,1.9,0.1c6-5,12.1-5.3,18-5.4
	c0-5.9,0.3-11.9,5.3-18c-0.6-1.4,0-3,1.4-3.7s3,0,3.7,1.4s0,3-1.4,3.7c-0.6,0.3-1.3,0.3-2,0.1l-0.5,0.6L45.3,23
	c0.2-0.2,0.4-0.3,0.7-0.5c-0.5-1.5,0.4-3,1.8-3.4c1.5-0.5,3,0.4,3.4,1.8s-0.4,3-1.8,3.4C48.7,24.5,48.1,24.5,47.5,24.2L47.5,24.2z"
	/>
<path class="st0" d="M31.2,15.9l9.7,9.7c0.8-0.3,1.6-0.8,2.4-1.2L32.4,13.4C31.9,14.2,31.5,15,31.2,15.9z"/>
<path class="st0" d="M29.8,21.4l5.5,5.6c1-0.1,2.1-0.3,3.1-0.6l-8-8C30.1,19.4,29.9,20.4,29.8,21.4z"/>
</svg>
