<svg id="Ebene_1" data-name="Ebene 1" xmlns="http://www.w3.org/2000/svg" viewBox="0 0 56.69 56.69"><defs><style>.cls-1{fill:#87433a;}</style></defs><path class="cls-1" d="M27.13,32.75c.05-1.06.07-2.13.07-3.21-1.08,0-2.15,0-3.21.07Z"/><path class="cls-1" d="M29.49,27.25c.91,0,1.81,0,2.71-.05l-2.66-2.66C29.51,25.44,29.49,26.34,29.49,27.25Z"/><path class="cls-1" d="M13.08,32.65l11,11a20.32,20.32,0,0,0,1.25-2.39L15.46,31.4A19.45,19.45,0,0,0,13.08,32.65Z"/><path class="cls-1" d="M20.93,29.88a24.41,24.41,0,0,0-3,.63l8.31,8.32a24.56,24.56,0,0,0,.63-3l-5.93-5.92Z"/><path class="cls-1" d="M28.35,1.47A26.93,26.93,0,1,0,55.28,28.39,26.92,26.92,0,0,0,28.35,1.47Zm19.1,22.72c-6,5-12.08,5.33-18,5.35,0,5.88-.34,11.92-5.35,18a2.76,2.76,0,1,1-4.48-.85A2.73,2.73,0,0,1,22.44,46l.27-.35L11.12,34c-.12.09-.24.17-.35.27a2.77,2.77,0,1,1-1.53-1.7c6-5,12.08-5.33,18-5.35,0-5.88.33-11.92,5.34-18a2.78,2.78,0,1,1,1.7,1.52l-.5.65L45.28,23c.22-.17.43-.32.65-.5a2.75,2.75,0,1,1,1.52,1.7Z"/><path class="cls-1" d="M31.19,15.87l9.68,9.68a18.3,18.3,0,0,0,2.42-1.22L32.41,13.45A18.3,18.3,0,0,0,31.19,15.87Z"/><path class="cls-1" d="M29.78,21.44,35.3,27a22.91,22.91,0,0,0,3.06-.58l-8-8A23.53,23.53,0,0,0,29.78,21.44Z"/></svg>