<?xml version="1.0" encoding="UTF-8"?><svg id="Ebene_2" xmlns="http://www.w3.org/2000/svg" viewBox="0 0 100 100"><defs><style>.cls-1{fill:#f9faec;}</style></defs><g><polygon class="cls-1" points="28.34 17.41 17.19 34.73 17.19 42.24 29.45 54.88 49 49.53 49 34.5 28.34 17.41"/><polygon class="cls-1" points="71.68 17.42 82.81 34.73 82.81 42.24 70.57 54.88 51.05 49.53 51.05 34.5 71.68 17.42"/></g><polygon class="cls-1" points="50 54.88 38.61 58.64 38.61 64.79 50 70.94 61.39 64.79 61.39 58.64 50 54.88"/><path class="cls-1" d="m68.23,60.12l-4.1-1.02v8.09l-14.13,8.43-14.13-8.43v-8.09l-4.1,1.02v10.82l1.23.74v8.63l17,10.19,17-10.19v-8.63l1.23-.74v-10.82Zm-5.06,16.68l-13.17,7.86-13.17-7.86v-2.83l13.17,7.9,13.17-7.9v2.83Z"/><g><polygon class="cls-1" points="9.1 39.05 26.36 14.8 23.97 9.5 9.78 14.8 5 37.17 9.1 39.05"/><polygon class="cls-1" points="90.9 39.05 73.64 14.8 76.03 9.5 90.22 14.8 95 37.17 90.9 39.05"/></g><polygon class="cls-1" points="65.09 17.42 50 22.65 34.91 17.42 33.59 18.55 50 30.68 66.41 18.55 65.09 17.42"/></svg>