<?xml version="1.0" encoding="utf-8"?>
<!-- Generator: Adobe Illustrator 26.0.1, SVG Export Plug-In . SVG Version: 6.00 Build 0)  -->
<svg version="1.1" id="Ebene_1" xmlns="http://www.w3.org/2000/svg" xmlns:xlink="http://www.w3.org/1999/xlink" x="0px" y="0px"
	 viewBox="0 0 56.7 56.7" style="enable-background:new 0 0 56.7 56.7;" xml:space="preserve">
<style type="text/css">
	.st0{fill:#00A7F5;}
</style>
<path class="st0" d="M28.4,1.5C13.5,1.5,1.4,13.5,1.4,28.4s12.1,26.9,26.9,26.9s26.9-12.1,26.9-26.9c0,0,0,0,0,0
	C55.3,13.5,43.2,1.5,28.4,1.5C28.4,1.5,28.4,1.5,28.4,1.5z M48.8,36.1l-5.6,5.6H13.4l-5.6-5.6v-8.4H19l4.3,4.3h10.1l4.3-4.3h11.1
	V36.1z M37.2,24.7l-4.3,4.3h-9.1l-4.3-4.3H7.9v-4l5.6-5.6h29.8l5.6,5.6v4H37.2z"/>
</svg>
