<?xml version="1.0" encoding="UTF-8"?><svg id="Ebene_2" xmlns="http://www.w3.org/2000/svg" viewBox="0 0 100 100"><defs><style>.cls-1{fill:#f9faec;}</style></defs><path class="cls-1" d="m84.34,52.09c.86,1.96,2.82,3.34,5.1,3.34,3.07,0,5.57-2.49,5.57-5.57s-2.49-5.57-5.57-5.57c-2.28,0-4.24,1.38-5.1,3.34h-4.36v-12.71h4.36c.86,1.96,2.82,3.34,5.1,3.34,3.07,0,5.57-2.49,5.57-5.57s-2.49-5.57-5.57-5.57c-2.28,0-4.24,1.38-5.1,3.34h-4.36v-4.83c-2.24-2.24-3.52-3.52-5.75-5.75h-4.83v-4.36c1.96-.86,3.34-2.82,3.34-5.1,0-3.07-2.49-5.57-5.57-5.57s-5.57,2.49-5.57,5.57c0,2.28,1.38,4.24,3.34,5.1v4.36h-12.71v-4.36c1.96-.86,3.34-2.82,3.34-5.1,0-3.07-2.49-5.57-5.57-5.57s-5.57,2.49-5.57,5.57c0,2.28,1.38,4.24,3.34,5.1v4.36h-12.71v-4.36c1.96-.86,3.34-2.82,3.34-5.1,0-3.07-2.49-5.57-5.57-5.57s-5.57,2.49-5.57,5.57c0,2.28,1.38,4.24,3.34,5.1v4.36h-4.83c-2.24,2.24-3.52,3.52-5.75,5.75v4.83h-4.36c-.86-1.96-2.82-3.34-5.1-3.34-3.07,0-5.57,2.49-5.57,5.57s2.49,5.57,5.57,5.57c2.28,0,4.24-1.38,5.1-3.34h4.36v12.71h-4.36c-.86-1.96-2.82-3.34-5.1-3.34-3.07,0-5.57,2.49-5.57,5.57s2.49,5.57,5.57,5.57c2.28,0,4.24-1.38,5.1-3.34h4.36v12.71h-4.36c-.86-1.96-2.82-3.34-5.1-3.34-3.07,0-5.57,2.49-5.57,5.57s2.49,5.57,5.57,5.57c2.28,0,4.24-1.38,5.1-3.34h4.36v4.83c2.24,2.24,3.52,3.52,5.75,5.75h4.83v4.64c-1.96.86-3.34,2.82-3.34,5.1,0,3.07,2.49,5.57,5.57,5.57s5.57-2.49,5.57-5.57c0-2.28-1.38-4.24-3.34-5.1v-4.64h12.71v4.64c-1.96.86-3.34,2.82-3.34,5.1,0,3.07,2.49,5.57,5.57,5.57s5.57-2.49,5.57-5.57c0-2.28-1.38-4.24-3.34-5.1v-4.64h12.71v4.64c-1.96.86-3.34,2.82-3.34,5.1,0,3.07,2.49,5.57,5.57,5.57s5.57-2.49,5.57-5.57c0-2.28-1.38-4.24-3.34-5.1v-4.64h4.83c2.24-2.24,3.52-3.52,5.75-5.75v-4.83h4.36c.86,1.96,2.82,3.34,5.1,3.34,3.07,0,5.57-2.49,5.57-5.57s-2.49-5.57-5.57-5.57c-2.28,0-4.24,1.38-5.1,3.34h-4.36v-12.71h4.36Zm-38.6-12l-14.91,9.94,14.91,9.94v7.14l-20.81-13.48v-7.14l20.81-13.62v7.21Zm29.34,13.48l-20.88,13.55v-7.14l14.99-10.01-14.99-9.88v-7.21l20.88,13.55v7.14Z"/></svg>