<?xml version="1.0" encoding="UTF-8"?><svg id="Ebene_2" xmlns="http://www.w3.org/2000/svg" viewBox="0 0 100 100"><defs><style>.cls-1{fill:#f9faec;}</style></defs><path class="cls-1" d="m44.95,30.16l2.24,11.02c.38-.06.78-.07,1.17-.1v-14.77c-.67,1.64-1.88,3-3.41,3.85Z"/><path class="cls-1" d="m95,56.34c0-4.61-2.63-8.52-6.27-9.9,1.65-1.63,2.7-4.03,2.7-6.71,0-4.59-3.06-8.37-6.98-8.83.34-1,.54-2.09.54-3.22,0-4.91-3.49-8.88-7.79-8.88-.47,0-.92.05-1.36.14,0-.05,0-.1,0-.14,0-7.62-5.42-13.79-12.1-13.79s-12.1,6.17-12.1,13.79v22.57c2.97.71,5.5,2.56,7.1,5.07l9.17-5.3c-.09-.48-.14-.98-.14-1.49,0-4.3,3.46-7.78,7.73-7.78s7.73,3.48,7.73,7.78-3.46,7.78-7.73,7.78c-2.31,0-4.39-1.03-5.8-2.65l-9.78,4.07c.44,1.23.68,2.55.68,3.93,0,3.65-1.65,6.9-4.24,9.06l5.3,7.16c.43-.08.88-.12,1.33-.12,4.27,0,7.73,3.48,7.73,7.78s-3.46,7.78-7.73,7.78-7.73-3.48-7.73-7.78c0-1.84.64-3.52,1.7-4.85l-3.7-8.13c-.52.21-1.06.37-1.62.51v20.39c0,5.76,4.1,10.43,9.15,10.43,3.24,0,6.09-1.93,7.71-4.83,1.29,1.09,2.89,1.74,4.62,1.74,4.3,0,7.79-3.98,7.79-8.88,0-.54-.05-1.07-.13-1.58.48.09.98.15,1.49.15,5.05,0,9.15-4.67,9.15-10.43,0-2.04-.52-3.94-1.41-5.55,2.96-1.73,4.99-5.23,4.99-9.28Z"/><path class="cls-1" d="m37.28,52.77c0-.41.02-.82.06-1.22l-9.18-1.43c-1.25,2.62-3.89,4.43-6.97,4.43-4.27,0-7.73-3.48-7.73-7.78s3.46-7.78,7.73-7.78,7.63,3.39,7.72,7.6l8.95,2.49c1.1-3.35,3.65-6.02,6.91-7.27l-3.47-10.69s-.06,0-.1,0c-4.27,0-7.73-3.48-7.73-7.78s3.46-7.78,7.73-7.78c3.22,0,5.98,1.99,7.14,4.81v-1.58c0-7.62-5.42-13.79-12.1-13.79s-12.1,6.17-12.1,13.79c0,.05,0,.1,0,.14-.44-.09-.9-.14-1.36-.14-4.3,0-7.79,3.98-7.79,8.88,0,1.14.19,2.22.54,3.22-3.92.47-6.98,4.24-6.98,8.83,0,2.68,1.05,5.08,2.7,6.71-3.64,1.37-6.27,5.28-6.27,9.9,0,4.05,2.03,7.55,4.99,9.28-.89,1.61-1.41,3.51-1.41,5.55,0,5.76,4.1,10.43,9.15,10.43.51,0,1-.06,1.49-.15-.08.51-.13,1.04-.13,1.58,0,4.91,3.49,8.88,7.79,8.88,1.73,0,3.33-.65,4.62-1.74,1.62,2.9,4.47,4.83,7.71,4.83,5.05,0,9.15-4.67,9.15-10.43v-20.09c-6.17-.31-11.08-5.43-11.08-11.71Z"/></svg>