<?xml version="1.0" encoding="UTF-8"?><svg id="Ebene_2" xmlns="http://www.w3.org/2000/svg" viewBox="0 0 100 100"><defs><style>.cls-1{fill:#f9faec;}</style></defs><path class="cls-1" d="m46.99,80.85l-2.47-2.48-2.23,2.24c.56,1.45.27,3.17-.9,4.34-1.57,1.58-4.12,1.58-5.69,0s-1.57-4.15,0-5.73c1.17-1.17,2.87-1.47,4.31-.9l2.23-2.24-6.5-6.54-2.23,2.24c.56,1.45.27,3.17-.9,4.34-1.57,1.58-4.12,1.58-5.69,0s-1.57-4.15,0-5.73c1.17-1.17,2.87-1.47,4.31-.9l2.23-2.24-6.5-6.54-2.23,2.24c.56,1.45.27,3.17-.9,4.34-1.57,1.58-4.12,1.58-5.69,0s-1.57-4.15,0-5.73c1.17-1.17,2.87-1.47,4.31-.9l2.23-2.24-2.47-2.48c0-2.3,0-3.62,0-5.92l2.47-2.48-2.23-2.24c-1.44.57-3.15.27-4.31-.9-1.57-1.58-1.57-4.15,0-5.73,1.57-1.58,4.12-1.58,5.69,0,1.17,1.17,1.46,2.89.9,4.34l2.23,2.24,6.5-6.54-2.23-2.24c-1.44.57-3.15.27-4.31-.9-1.57-1.58-1.57-4.15,0-5.73,1.57-1.58,4.12-1.58,5.69,0,1.17,1.17,1.46,2.89.9,4.34l2.23,2.24,6.5-6.54-2.23-2.24c-1.44.57-3.15.27-4.31-.9-1.57-1.58-1.57-4.15,0-5.73s4.12-1.58,5.69,0c1.17,1.17,1.46,2.89.9,4.34l2.23,2.24,2.47-2.48h1.36v-6.32c0-7.62-5.42-13.79-12.1-13.79s-12.1,6.17-12.1,13.79c0,.05,0,.1,0,.14-.44-.09-.9-.14-1.36-.14-4.3,0-7.79,3.98-7.79,8.88,0,1.14.19,2.22.54,3.22-3.92.47-6.98,4.24-6.98,8.83,0,2.68,1.05,5.08,2.7,6.71-3.64,1.37-6.27,5.28-6.27,9.9,0,4.05,2.03,7.55,4.99,9.28-.89,1.61-1.41,3.51-1.41,5.55,0,5.76,4.1,10.43,9.15,10.43.51,0,1-.06,1.49-.15-.08.51-.13,1.04-.13,1.58,0,4.91,3.49,8.88,7.79,8.88,1.73,0,3.33-.65,4.62-1.74,1.62,2.9,4.47,4.83,7.71,4.83,5.05,0,9.15-4.67,9.15-10.43v-3.72h-1.36Z"/><path class="cls-1" d="m95,56.34c0-4.61-2.63-8.52-6.27-9.9,1.65-1.63,2.7-4.03,2.7-6.71,0-4.59-3.06-8.37-6.98-8.83.34-1,.54-2.09.54-3.22,0-4.91-3.49-8.88-7.79-8.88-.47,0-.92.05-1.36.14,0-.05,0-.1,0-.14,0-7.62-5.42-13.79-12.1-13.79s-12.1,6.17-12.1,13.79v6.32c.38,0,.78,0,1.22,0l2.47,2.48,2.23-2.24c-.56-1.45-.27-3.17.9-4.34,1.57-1.58,4.12-1.58,5.69,0,1.57,1.58,1.57,4.15,0,5.73-1.17,1.17-2.87,1.47-4.31.9l-2.23,2.24,6.5,6.54,2.23-2.24c-.56-1.45-.27-3.17.9-4.34,1.57-1.58,4.12-1.58,5.69,0,1.57,1.58,1.57,4.15,0,5.73-1.17,1.17-2.87,1.47-4.31.9l-2.23,2.24,6.5,6.54,2.23-2.24c-.56-1.45-.27-3.17.9-4.34,1.57-1.58,4.12-1.58,5.69,0,1.57,1.58,1.57,4.15,0,5.73-1.17,1.17-2.87,1.47-4.31.9l-2.23,2.24,2.47,2.48c0,2.3,0,3.62,0,5.92l-2.47,2.48,2.37,2.38c1.44-.57,3.15-.27,4.31.9,1.57,1.58,1.57,4.15,0,5.73s-4.12,1.58-5.69,0c-1.17-1.17-1.46-2.89-.9-4.34l-2.37-2.38-6.5,6.54,2.37,2.38c1.44-.57,3.15-.27,4.31.9,1.57,1.58,1.57,4.15,0,5.73s-4.12,1.58-5.69,0c-1.17-1.17-1.46-2.89-.9-4.34l-2.37-2.38-6.5,6.54,2.37,2.38c1.44-.57,3.15-.27,4.31.9,1.57,1.58,1.57,4.15,0,5.73-1.57,1.58-4.12,1.58-5.69,0-1.17-1.17-1.46-2.89-.9-4.34l-2.37-2.38-2.47,2.48h-1.22v3.72c0,5.76,4.1,10.43,9.15,10.43,3.24,0,6.09-1.93,7.71-4.83,1.29,1.09,2.89,1.74,4.62,1.74,4.3,0,7.79-3.98,7.79-8.88,0-.54-.05-1.07-.13-1.58.48.09.98.15,1.49.15,5.05,0,9.15-4.67,9.15-10.43,0-2.04-.52-3.94-1.41-5.55,2.96-1.73,4.99-5.23,4.99-9.28Z"/></svg>