<?xml version="1.0" encoding="UTF-8"?><svg id="Ebene_2" xmlns="http://www.w3.org/2000/svg" viewBox="0 0 100 100"><defs><style>.cls-1{fill:#f9faec;}</style></defs><path class="cls-1" d="m84.23,52.08c.86,1.96,2.81,3.33,5.08,3.33,3.07,0,5.55-2.49,5.55-5.55s-2.49-5.55-5.55-5.55c-2.27,0-4.22,1.37-5.08,3.33h-4.35v-12.67h4.35c.86,1.96,2.81,3.33,5.08,3.33,3.07,0,5.55-2.48,5.55-5.55s-2.49-5.55-5.55-5.55c-2.27,0-4.22,1.37-5.08,3.33h-4.35v-4.81c-2.23-2.23-3.5-3.5-5.74-5.74h-4.81v-4.35c1.96-.86,3.33-2.81,3.33-5.08,0-3.07-2.49-5.55-5.55-5.55s-5.55,2.48-5.55,5.55c0,2.27,1.37,4.22,3.33,5.08v4.35h-12.67v-4.35c1.96-.86,3.33-2.81,3.33-5.08,0-3.07-2.48-5.55-5.55-5.55s-5.55,2.48-5.55,5.55c0,2.27,1.37,4.22,3.33,5.08v4.35h-12.67v-4.35c1.96-.86,3.33-2.81,3.33-5.08,0-3.07-2.48-5.55-5.55-5.55s-5.55,2.48-5.55,5.55c0,2.27,1.37,4.22,3.33,5.08v4.35h-4.81c-2.23,2.23-3.5,3.5-5.74,5.74v4.81h-4.35c-.86-1.96-2.81-3.33-5.08-3.33-3.07,0-5.55,2.49-5.55,5.55s2.49,5.55,5.55,5.55c2.27,0,4.22-1.37,5.08-3.33h4.35v12.67h-4.35c-.86-1.96-2.81-3.33-5.08-3.33-3.07,0-5.55,2.48-5.55,5.55s2.49,5.55,5.55,5.55c2.27,0,4.22-1.37,5.08-3.33h4.35v12.67h-4.35c-.86-1.96-2.81-3.33-5.08-3.33-3.07,0-5.55,2.48-5.55,5.55s2.49,5.55,5.55,5.55c2.27,0,4.22-1.37,5.08-3.33h4.35v4.81c2.23,2.23,3.5,3.5,5.74,5.74h4.81v4.62c-1.96.86-3.33,2.81-3.33,5.08,0,3.07,2.49,5.55,5.55,5.55s5.55-2.48,5.55-5.55c0-2.27-1.37-4.22-3.33-5.08v-4.62h12.67v4.62c-1.96.86-3.33,2.81-3.33,5.08,0,3.07,2.49,5.55,5.55,5.55s5.55-2.48,5.55-5.55c0-2.27-1.37-4.22-3.33-5.08v-4.62h12.67v4.62c-1.96.86-3.33,2.81-3.33,5.08,0,3.07,2.48,5.55,5.55,5.55s5.55-2.48,5.55-5.55c0-2.27-1.37-4.22-3.33-5.08v-4.62h4.81c2.23-2.23,3.51-3.5,5.74-5.74v-4.81h4.35c.86,1.96,2.81,3.33,5.08,3.33,3.07,0,5.55-2.48,5.55-5.55s-2.49-5.55-5.55-5.55c-2.27,0-4.22,1.37-5.08,3.33h-4.35v-12.67h4.35Zm-40.78-26.35h13.1v3.84h-13.1v-3.84Zm0,6.89h13.1v3.33h-13.1v-3.33Zm13.87,6.38c-.69,1.17-1.45,2.28-2.27,3.33h-10.1c-.82-1.05-1.58-2.16-2.27-3.33h14.64Zm-9.75,6.38h4.87c-.79.85-1.6,1.69-2.43,2.52-.83-.83-1.64-1.67-2.43-2.52Zm5.31,9.71h-5.75c.93-1.02,1.89-2.01,2.88-3,.98.99,1.95,1.98,2.87,3Zm-15.19,1.45h-11.95v-13.1h11.95l2.64-2.64c2.12,3.52,4.83,6.42,7.59,9.19-2.76,2.77-5.47,5.67-7.59,9.19l-2.64-2.64Zm18.87,17.72h-13.1v-3.36h13.1v3.36Zm0-6.41h-13.1v-3.33h13.1v3.33Zm.84-6.38h-14.78l-.13-.13c.64-1.12,1.34-2.19,2.1-3.2h0s10.84,0,10.84,0c.76,1.01,1.46,2.07,2.1,3.2l-.13.13Zm16.88-4.93h-11.95l-2.64,2.64c-2.12-3.52-4.83-6.42-7.59-9.19,2.76-2.77,5.47-5.67,7.59-9.19l2.64,2.64h11.95v13.1Z"/></svg>