<?xml version="1.0" encoding="utf-8"?>
<!-- Generator: Adobe Illustrator 26.0.1, SVG Export Plug-In . SVG Version: 6.00 Build 0)  -->
<svg version="1.1" id="Ebene_1" xmlns="http://www.w3.org/2000/svg" xmlns:xlink="http://www.w3.org/1999/xlink" x="0px" y="0px"
	 viewBox="0 0 56.7 56.7" style="enable-background:new 0 0 56.7 56.7;" xml:space="preserve">
<style type="text/css">
	.st0{fill:#00A7F5;}
</style>
<path class="st0" d="M28.4,1.5C13.5,1.5,1.4,13.5,1.4,28.4s12.1,26.9,26.9,26.9s26.9-12.1,26.9-26.9c0,0,0,0,0,0
	C55.3,13.5,43.2,1.5,28.4,1.5C28.4,1.5,28.4,1.5,28.4,1.5z M42.5,14.3c0,0.3-0.1,0.5-0.2,0.7c-1.6,2.4-2.6,6.2-2.6,10.6
	s1,8.2,2.6,10.6c0.1,0.2,0.2,0.5,0.2,0.7v9.4c0,0.6-0.4,1.1-1,1.2H14.6c-0.6-0.1-1-0.6-1-1.2v-9.4c0-0.3,0.1-0.5,0.2-0.7
	c1.6-2.4,2.6-6.2,2.6-10.6s-1-8.2-2.6-10.6c-0.1-0.2-0.2-0.5-0.2-0.7v-1.5c0-0.6,0.4-1.1,1-1.2h3c0.5,0,1,0.5,1,1
	c0.7,4.4,4.5,7.6,9,7.6l0,0H28h0.4l0,0c4.5,0.1,8.3-3.2,9-7.6c0-0.5,0.5-1,1-1h3c0.6,0.1,1,0.6,1,1.2L42.5,14.3z"/>
<path class="st0" d="M33.2,23.8H22.8c-1.1,0-2,0.9-2,2v7.8c0,0.4,0.1,0.7,0.3,1l5.2,8.1c0.6,1,2,1.2,2.9,0.6
	c0.2-0.2,0.4-0.4,0.6-0.6l5.2-8.1c0.2-0.3,0.3-0.6,0.3-1v-7.8C35.3,24.7,34.3,23.8,33.2,23.8C33.2,23.8,33.2,23.8,33.2,23.8z
	 M33.5,33.7c0,0.1,0,0.2-0.1,0.3l-4.4,6c-0.2,0.3-0.6,0.3-0.8,0.1C28.1,40,28,39.9,28,39.7V26.5c0-0.6,0.5-1.2,1.1-1.2c0,0,0,0,0,0
	H33c0.3,0,0.6,0.3,0.6,0.6v0L33.5,33.7z"/>
</svg>
