<svg id="Ebene_1" data-name="Ebene 1" xmlns="http://www.w3.org/2000/svg" viewBox="0 0 56.69 56.69"><defs><style>.cls-1{fill:#87433a;}</style></defs><path class="cls-1" d="M28.35,1.47A26.93,26.93,0,1,0,55.28,28.39,26.92,26.92,0,0,0,28.35,1.47ZM27.33,50l-4.48-5.18L18.37,50V28.39l2.87,5h6.09Zm11-21.27v22.8l-4.47-5.18-4.48,5.18V33.37h6.08l2.87-5Zm-3.26,1.94H21.63L14.91,19,21.63,7.36H35.06L41.78,19Z"/><path class="cls-1" d="M33,13.46a7.26,7.26,0,0,1,2.46,4.25l2.46-4.25Z"/><path class="cls-1" d="M23.67,13.46H18.76l2.45,4.25A7.31,7.31,0,0,1,23.67,13.46Z"/><path class="cls-1" d="M28.35,26.24a7.39,7.39,0,0,1-2.46-.42l2.46,4.25,2.45-4.25A7.37,7.37,0,0,1,28.35,26.24Z"/><circle class="cls-1" cx="28.35" cy="19" r="5.84"/></svg>