<svg id="Ebene_1" data-name="Ebene 1" xmlns="http://www.w3.org/2000/svg" viewBox="0 0 56.69 56.69"><defs><style>.cls-1{fill:#87433a;}</style></defs><polygon class="cls-1" points="26.88 21.57 30.1 23.04 33.24 19.9 29.78 18.67 26.88 21.57"/><polygon class="cls-1" points="23.45 36.89 26.91 38.12 29.81 35.22 26.59 33.75 23.45 36.89"/><path class="cls-1" d="M28.35,1.47A26.93,26.93,0,1,0,55.28,28.39,26.92,26.92,0,0,0,28.35,1.47ZM25.93,50.86l-4.86-1L18.13,46.9,20,45.06,8.55,41l2.95-8.35,10.69,3.78,4.14-4.15,4.39,2,9.63-9.63,5.88,5.88ZM45.19,24.12,34.5,20.34l-4.14,4.15-4.39-2-9.63,9.63-5.88-5.88,20.3-20.3,4.86,1,2.94,2.94-1.83,1.84,11.42,4Z"/></svg>