<?xml version="1.0" encoding="UTF-8"?><svg id="Ebene_2" xmlns="http://www.w3.org/2000/svg" viewBox="0 0 100 100"><defs><style>.cls-1{fill:#f9faec;}</style></defs><path class="cls-1" d="m17.73,50.14l-10.28.02c.02,9.05,2.84,17.69,8.17,24.98l8.3-6.06c-4.03-5.53-6.17-12.08-6.19-18.94Z"/><path class="cls-1" d="m60,80.77c-6.41,2.09-13.52,2.09-19.94.02l-2.58,7.97c-6.03-1.94-11.56-5.29-16.18-9.89l-4.84,4.85c8.97,8.94,20.88,13.86,33.54,13.86h.05l-.03-4.95c4.5,0,8.93-.7,13.17-2.08l-3.18-9.78Z"/><path class="cls-1" d="m79.97,19.88l3.49-3.52C74.51,7.47,62.62,2.57,49.96,2.57h-.1v6.85h.14c4.29,0,8.47.67,12.44,1.94l-2.56,7.97c6.42,2.06,12.16,6.21,16.17,11.67l8.29-6.08c-1.32-1.8-2.78-3.49-4.36-5.05Z"/><path class="cls-1" d="m17.06,26.26l6.78,4.91c3.98-5.49,9.69-9.67,16.1-11.77l-3.2-9.77c-6.34,2.08-12.17,5.7-16.9,10.44l-3.51-3.5C7.41,25.53,2.5,37.43,2.5,50.13h1.46s5.4-.06,5.4-.06c0-8.67,2.71-16.93,7.7-23.81Z"/><path class="cls-1" d="m90.65,49.89v.03h-8.38v.15c0,6.87-2.13,13.42-6.15,18.95l6.77,4.93c-1.24,1.7-2.62,3.33-4.14,4.85l4.85,4.84c8.96-8.97,13.9-20.89,13.9-33.57v-.18h-6.85Z"/><path class="cls-1" d="m76.88,53.35v-6.91l-7.49-.53c-.51-2.5-1.51-4.83-2.87-6.89l4.93-5.68-4.89-4.89-5.68,4.93c-2.06-1.36-4.39-2.36-6.89-2.87l-.53-7.49h-6.91l-.53,7.49c-2.5.51-4.83,1.51-6.89,2.87l-5.68-4.93-4.89,4.89,4.93,5.68c-1.36,2.06-2.36,4.39-2.87,6.89l-7.49.53v6.91l7.49.53c.51,2.5,1.51,4.83,2.87,6.89l-4.93,5.68,4.89,4.89,5.68-4.93c2.06,1.36,4.39,2.36,6.89,2.87l.53,7.49h6.91l.53-7.49c2.5-.51,4.83-1.51,6.89-2.87l5.68,4.93,4.89-4.89-4.93-5.68c1.36-2.06,2.36-4.39,2.87-6.89l7.49-.53Zm-26.88,7.61c-6.1,0-11.07-4.97-11.07-11.07s4.97-11.07,11.07-11.07,11.07,4.97,11.07,11.07-4.97,11.07-11.07,11.07Z"/></svg>