<?xml version="1.0" encoding="utf-8"?>
<!-- Generator: $$$/GeneralStr/196=Adobe Illustrator 27.6.0, SVG Export Plug-In . SVG Version: 6.00 Build 0)  -->
<svg version="1.1" id="Ebene_2_00000174561159596356379310000010812229740987480470_"
	 xmlns="http://www.w3.org/2000/svg" xmlns:xlink="http://www.w3.org/1999/xlink" x="0px" y="0px" width="100px" height="100px"
	 viewBox="0 0 100 100" style="enable-background:new 0 0 100 100;" xml:space="preserve">
<style type="text/css">
	.st0{fill:#F9FAEC;}
</style>
<path class="st0" d="M50,19.9c-12.5,0-22.5,12.9-22.5,26.1S39.8,80.2,50,80.2s22.5-21.1,22.5-34.2S62.5,19.9,50,19.9z M38.1,54.4
	c-3-0.8-4.5-4.8-4.5-4.8s3.1-2,6.1-1.2s4.7,4.1,4.7,4.1S41,55.2,38.1,54.4L38.1,54.4z M61.9,54.4c-3,0.8-6.3-1.9-6.3-1.9
	s1.7-3.3,4.7-4.1s6.1,1.2,6.1,1.2S64.9,53.6,61.9,54.4L61.9,54.4z"/>
<path class="st0" d="M17.7,50.1l-10.3,0c0,9,2.8,17.7,8.2,25l8.3-6.1C19.9,63.5,17.8,56.9,17.7,50.1z"/>
<path class="st0" d="M60,80.7c-6.4,2.1-13.5,2.1-19.9,0l-2.6,8c-6-1.9-11.6-5.3-16.2-9.9l-4.8,4.8c9,8.9,20.9,13.9,33.5,13.9h0
	l0-4.9c4.5,0,8.9-0.7,13.2-2.1L60,80.7L60,80.7z"/>
<path class="st0" d="M80,19.8l3.5-3.5C74.5,7.4,62.6,2.5,50,2.5h-0.1v6.9H50c4.3,0,8.5,0.7,12.4,1.9l-2.6,8
	C66.3,21.3,72,25.5,76,30.9l8.3-6.1C83,23.1,81.6,21.4,80,19.8L80,19.8z"/>
<path class="st0" d="M17.1,26.2l6.8,4.9c4-5.5,9.7-9.7,16.1-11.8l-3.2-9.8c-6.3,2.1-12.2,5.7-16.9,10.4l-3.5-3.5
	c-8.9,9-13.8,20.9-13.8,33.6H4L9.4,50C9.4,41.3,12.1,33.1,17.1,26.2z"/>
<path class="st0" d="M90.7,49.8L90.7,49.8l-8.4,0V50c0,6.9-2.1,13.4-6.2,18.9l6.8,4.9c-1.2,1.7-2.6,3.3-4.1,4.8l4.8,4.8
	c9-9,13.9-20.9,13.9-33.6v-0.2C97.5,49.8,90.7,49.8,90.7,49.8z"/>
</svg>
