<?xml version="1.0" encoding="UTF-8"?><svg id="Ebene_2" xmlns="http://www.w3.org/2000/svg" viewBox="0 0 100 100"><defs><style>.cls-1{fill:#f9faec;}</style></defs><path class="cls-1" d="m50.08,24.23c9.41,0,17.97,10.25,17.97,21.5,0,12.22-11.62,29.65-17.97,29.65s-17.97-17.43-17.97-29.65c0-11.25,8.57-21.5,17.97-21.5m0-4.57c-12.45,0-22.54,12.91-22.54,26.07s12.36,34.22,22.54,34.22,22.54-21.06,22.54-34.22-10.09-26.07-22.54-26.07h0Z"/><path class="cls-1" d="m17.81,49.87l-10.28.02c.02,9.05,2.84,17.69,8.17,24.98l8.3-6.06c-4.03-5.53-6.17-12.08-6.19-18.94Z"/><path class="cls-1" d="m60.08,80.5c-6.41,2.09-13.52,2.09-19.94.02l-2.58,7.97c-6.03-1.94-11.56-5.29-16.18-9.89l-4.84,4.85c8.97,8.94,20.88,13.86,33.54,13.86h.05l-.03-4.95c4.5,0,8.93-.7,13.17-2.08l-3.18-9.78Z"/><path class="cls-1" d="m80.05,19.61l3.49-3.52C74.59,7.2,62.7,2.3,50.04,2.3h-.1v6.85h.14c4.29,0,8.47.67,12.44,1.94l-2.56,7.97c6.42,2.06,12.16,6.21,16.17,11.67l8.29-6.08c-1.32-1.8-2.78-3.49-4.36-5.05Z"/><path class="cls-1" d="m17.14,25.99l6.78,4.91c3.98-5.49,9.69-9.67,16.1-11.77l-3.2-9.77c-6.34,2.08-12.17,5.7-16.9,10.44l-3.51-3.5C7.49,25.26,2.58,37.16,2.58,49.86h1.46s5.4-.06,5.4-.06c0-8.67,2.71-16.93,7.7-23.81Z"/><path class="cls-1" d="m90.72,49.62v.03h-8.38v.15c0,6.87-2.13,13.42-6.15,18.95l6.77,4.93c-1.24,1.7-2.62,3.33-4.14,4.85l4.85,4.84c8.96-8.97,13.9-20.89,13.9-33.57v-.18h-6.85Z"/><path class="cls-1" d="m38.03,54.2c-2.97-.79-4.49-4.79-4.49-4.79,0,0,3.09-1.98,6.06-1.18s4.7,4.06,4.7,4.06c0,0-3.31,2.71-6.28,1.91Z"/><path class="cls-1" d="m61.85,54.2c-2.97.79-6.28-1.91-6.28-1.91,0,0,1.73-3.27,4.7-4.06,2.97-.79,6.06,1.18,6.06,1.18,0,0-1.51,3.99-4.49,4.79Z"/></svg>