<?xml version="1.0" encoding="utf-8"?>
<!-- Generator: $$$/GeneralStr/196=Adobe Illustrator 27.6.0, SVG Export Plug-In . SVG Version: 6.00 Build 0)  -->
<svg version="1.1" id="Ebene_2_00000128474644357393572850000011200735032982014867_"
	 xmlns="http://www.w3.org/2000/svg" xmlns:xlink="http://www.w3.org/1999/xlink" x="0px" y="0px" width="100px" height="100px"
	 viewBox="0 0 100 100" style="enable-background:new 0 0 100 100;" xml:space="preserve">
<style type="text/css">
	.st0{fill:#F9FAEC;}
</style>
<path class="st0" d="M50.1,24.2c9.4,0,18,10.2,18,21.5c0,12.2-11.6,29.6-18,29.6s-18-17.4-18-29.7C32.1,34.5,40.7,24.2,50.1,24.2
	 M50.1,19.7c-12.5,0-22.5,12.9-22.5,26.1s12.4,34.2,22.5,34.2s22.5-21.1,22.5-34.2S62.5,19.7,50.1,19.7L50.1,19.7z"/>
<path class="st0" d="M17.8,49.9l-10.3,0c0,9,2.8,17.7,8.2,25l8.3-6.1C20,63.3,17.8,56.7,17.8,49.9z"/>
<path class="st0" d="M60.1,80.5c-6.4,2.1-13.5,2.1-19.9,0l-2.6,8c-6-1.9-11.6-5.3-16.2-9.9l-4.8,4.8c9,8.9,20.9,13.9,33.5,13.9h0
	l0-4.9c4.5,0,8.9-0.7,13.2-2.1L60.1,80.5L60.1,80.5z"/>
<path class="st0" d="M80.1,19.6l3.5-3.5C74.6,7.2,62.7,2.3,50,2.3h-0.1v6.8h0.1c4.3,0,8.5,0.7,12.4,1.9l-2.6,8
	c6.4,2.1,12.2,6.2,16.2,11.7l8.3-6.1C83.1,22.9,81.6,21.2,80.1,19.6L80.1,19.6z"/>
<path class="st0" d="M17.1,26l6.8,4.9c4-5.5,9.7-9.7,16.1-11.8l-3.2-9.8c-6.3,2.1-12.2,5.7-16.9,10.4l-3.5-3.5
	c-8.9,9-13.8,20.9-13.8,33.6H4l5.4-0.1C9.4,41.1,12.2,32.9,17.1,26z"/>
<path class="st0" d="M90.7,49.6L90.7,49.6l-8.4,0v0.2c0,6.9-2.1,13.4-6.2,19l6.8,4.9c-1.2,1.7-2.6,3.3-4.1,4.8l4.8,4.8
	c9-9,13.9-20.9,13.9-33.6v-0.2C97.6,49.6,90.7,49.6,90.7,49.6z"/>
<path class="st0" d="M38,54.2c-3-0.8-4.5-4.8-4.5-4.8s3.1-2,6.1-1.2s4.7,4.1,4.7,4.1S41,55,38,54.2L38,54.2z"/>
<path class="st0" d="M61.8,54.2c-3,0.8-6.3-1.9-6.3-1.9s1.7-3.3,4.7-4.1s6.1,1.2,6.1,1.2S64.8,53.4,61.8,54.2L61.8,54.2z"/>
</svg>
