<?xml version="1.0" encoding="utf-8"?>
<!-- Generator: $$$/GeneralStr/196=Adobe Illustrator 27.6.0, SVG Export Plug-In . SVG Version: 6.00 Build 0)  -->
<svg version="1.1" id="Ebene_2_00000060749026970164752710000008253607007731173300_"
	 xmlns="http://www.w3.org/2000/svg" xmlns:xlink="http://www.w3.org/1999/xlink" x="0px" y="0px" width="100px" height="100px"
	 viewBox="0 0 100 100" style="enable-background:new 0 0 100 100;" xml:space="preserve">
<style type="text/css">
	.st0{fill:#F9FAEC;}
</style>
<path class="st0" d="M17.7,50.1l-10.3,0c0,9,2.8,17.7,8.2,25l8.3-6.1C19.9,63.6,17.8,57,17.7,50.1z"/>
<path class="st0" d="M60,80.8c-6.4,2.1-13.5,2.1-19.9,0l-2.6,8c-6-1.9-11.6-5.3-16.2-9.9l-4.8,4.8c9,8.9,20.9,13.9,33.5,13.9h0
	l0-4.9c4.5,0,8.9-0.7,13.2-2.1L60,80.8L60,80.8z"/>
<path class="st0" d="M80,19.9l3.5-3.5C74.5,7.5,62.6,2.6,50,2.6h-0.1v6.9H50c4.3,0,8.5,0.7,12.4,1.9l-2.6,8C66.3,21.4,72,25.5,76,31
	l8.3-6.1C83,23.1,81.6,21.4,80,19.9L80,19.9z"/>
<path class="st0" d="M17.1,26.3l6.8,4.9c4-5.5,9.7-9.7,16.1-11.8l-3.2-9.8c-6.3,2.1-12.2,5.7-16.9,10.4l-3.5-3.5
	c-8.9,9-13.8,20.9-13.8,33.6H4l5.4-0.1C9.4,41.4,12.1,33.1,17.1,26.3z"/>
<path class="st0" d="M90.7,49.9L90.7,49.9l-8.4,0v0.2c0,6.9-2.1,13.4-6.2,19l6.8,4.9c-1.2,1.7-2.6,3.3-4.1,4.8l4.8,4.8
	c9-9,13.9-20.9,13.9-33.6v-0.2H90.7z"/>
<path class="st0" d="M76.9,53.3v-6.9l-7.5-0.5c-0.5-2.5-1.5-4.8-2.9-6.9l4.9-5.7l-4.9-4.9l-5.7,4.9C58.8,32,56.5,31,54,30.5L53.5,23
	h-6.9L46,30.5c-2.5,0.5-4.8,1.5-6.9,2.9l-5.7-4.9l-4.9,4.9l4.9,5.7c-1.4,2.1-2.4,4.4-2.9,6.9l-7.5,0.5v6.9l7.5,0.5
	c0.5,2.5,1.5,4.8,2.9,6.9l-4.9,5.7l4.9,4.9l5.7-4.9c2.1,1.4,4.4,2.4,6.9,2.9l0.5,7.5h6.9l0.5-7.5c2.5-0.5,4.8-1.5,6.9-2.9l5.7,4.9
	l4.9-4.9l-4.9-5.7c1.4-2.1,2.4-4.4,2.9-6.9L76.9,53.3z M50,61c-6.1,0-11.1-5-11.1-11.1s5-11.1,11.1-11.1s11.1,5,11.1,11.1
	S56.1,61,50,61z"/>
</svg>
