<?xml version="1.0" encoding="UTF-8"?><svg id="Ebene_2" xmlns="http://www.w3.org/2000/svg" viewBox="0 0 100 100"><defs><style>.cls-1{fill:#f9faec;}</style></defs><path class="cls-1" d="m17.73,50.06l-10.28.02c.02,9.05,2.84,17.69,8.17,24.98l8.3-6.06c-4.03-5.53-6.17-12.08-6.19-18.94Z"/><path class="cls-1" d="m60,80.69c-6.41,2.09-13.52,2.09-19.94.02l-2.58,7.97c-6.03-1.94-11.56-5.29-16.18-9.89l-4.84,4.85c8.97,8.94,20.88,13.86,33.54,13.86h.05l-.03-4.95c4.5,0,8.93-.7,13.17-2.08l-3.18-9.78Z"/><path class="cls-1" d="m79.97,19.81l3.49-3.52C74.51,7.4,62.62,2.5,49.96,2.5h-.1v6.85h.14c4.29,0,8.47.67,12.44,1.94l-2.56,7.97c6.42,2.06,12.16,6.21,16.17,11.67l8.29-6.08c-1.32-1.8-2.78-3.49-4.36-5.05Z"/><path class="cls-1" d="m17.06,26.19l6.78,4.91c3.98-5.49,9.69-9.67,16.1-11.77l-3.2-9.77c-6.34,2.08-12.17,5.7-16.9,10.44l-3.51-3.5C7.41,25.46,2.5,37.36,2.5,50.06h1.46s5.4-.06,5.4-.06c0-8.67,2.71-16.93,7.7-23.81Z"/><path class="cls-1" d="m90.65,49.82v.03h-8.38v.15c0,6.87-2.13,13.42-6.15,18.95l6.77,4.93c-1.24,1.7-2.62,3.33-4.14,4.85l4.85,4.84c8.96-8.97,13.9-20.89,13.9-33.57v-.18h-6.85Z"/><path class="cls-1" d="m50,19.86c-12.45,0-22.54,12.91-22.54,26.07s12.36,34.22,22.54,34.22,22.54-21.06,22.54-34.22-10.09-26.07-22.54-26.07Zm-11.91,34.54c-2.97-.79-4.49-4.79-4.49-4.79,0,0,3.09-1.98,6.06-1.18,2.97.79,4.7,4.06,4.7,4.06,0,0-3.31,2.71-6.28,1.91Zm14.96-5.04c-.44-.44-.55-1.08-.34-1.62l-.84-.84-.93.93c-.86,0-1.35,0-2.21,0l-.93-.93-.84.84c.21.54.1,1.18-.34,1.62-.59.59-1.55.59-2.14,0s-.59-1.55,0-2.14c.44-.44,1.08-.55,1.62-.34l.84-.84-2.45-2.45-.84.84c.21.54.1,1.18-.34,1.62-.59.59-1.55.59-2.14,0s-.59-1.55,0-2.14c.44-.44,1.08-.55,1.62-.34l.84-.84-2.45-2.45-.84.84c.21.54.1,1.18-.34,1.62-.59.59-1.55.59-2.14,0s-.59-1.55,0-2.14c.44-.44,1.08-.55,1.62-.34l.84-.84-.93-.93c0-.86,0-1.35,0-2.21l.93-.93-.84-.84c-.54.21-1.18.1-1.62-.34-.59-.59-.59-1.55,0-2.14s1.55-.59,2.14,0c.44.44.55,1.08.34,1.62l.84.84,2.45-2.45-.84-.84c-.54.21-1.18.1-1.62-.34-.59-.59-.59-1.55,0-2.14s1.55-.59,2.14,0c.44.44.55,1.08.34,1.62l.84.84,2.45-2.45-.84-.84c-.54.21-1.18.1-1.62-.34-.59-.59-.59-1.55,0-2.14s1.55-.59,2.14,0c.44.44.55,1.08.34,1.62l.84.84.93-.93c.86,0,1.35,0,2.21,0l.93.93.89-.89c-.21-.54-.1-1.18.34-1.62.59-.59,1.55-.59,2.14,0s.59,1.55,0,2.14c-.44.44-1.08.55-1.62.34l-.89.89,2.45,2.45.89-.89c-.21-.54-.1-1.18.34-1.62.59-.59,1.55-.59,2.14,0s.59,1.55,0,2.14c-.44.44-1.08.55-1.62.34l-.89.89,2.45,2.45.89-.89c-.21-.54-.1-1.18.34-1.62.59-.59,1.55-.59,2.14,0s.59,1.55,0,2.14c-.44.44-1.08.55-1.62.34l-.89.89.93.93v2.21l-.93.93.84.84c.54-.21,1.18-.1,1.62.34.59.59.59,1.55,0,2.14s-1.55.59-2.14,0c-.44-.44-.55-1.08-.34-1.62l-.84-.84-2.45,2.45.84.84c.54-.21,1.18-.1,1.62.34.59.59.59,1.55,0,2.14-.59.59-1.55.59-2.14,0-.44-.44-.55-1.08-.34-1.62l-.84-.84-2.45,2.45.84.84c.54-.21,1.18-.1,1.62.34.59.59.59,1.55,0,2.14s-1.55.59-2.14,0Zm8.86,5.04c-2.97.79-6.28-1.91-6.28-1.91,0,0,1.73-3.27,4.7-4.06,2.97-.79,6.06,1.18,6.06,1.18,0,0-1.51,3.99-4.49,4.79Z"/></svg>