<?xml version="1.0" encoding="utf-8"?>
<!-- Generator: $$$/GeneralStr/196=Adobe Illustrator 27.6.0, SVG Export Plug-In . SVG Version: 6.00 Build 0)  -->
<svg version="1.1" id="Ebene_1" xmlns="http://www.w3.org/2000/svg" xmlns:xlink="http://www.w3.org/1999/xlink" x="0px" y="0px"
	 width="53.9px" height="53.9px" viewBox="0 0 53.9 53.9" style="enable-background:new 0 0 53.9 53.9;" xml:space="preserve">
<g id="Ebene_2_00000137119777372847619370000003559053317827367852_">
	<g id="Ebene_1-2">
		<path d="M26.9,22.8h-0.3c1.3,0.7,1.8,2.2,1.2,3.6c-0.7,1.3-2.2,1.8-3.6,1.2c-0.7-0.3-1.2-1-1.4-1.7c-0.1,0.4-0.1,0.7-0.1,1.1
			c0,2.3,1.9,4.2,4.2,4.2s4.2-1.9,4.2-4.2S29.2,22.8,26.9,22.8L26.9,22.8L26.9,22.8z"/>
		<path d="M26.9,19.5c-5-0.1-9.6,2.8-11.8,7.4c2.1,4.6,6.7,7.4,11.8,7.4c5,0.1,9.6-2.8,11.8-7.4C36.6,22.4,32,19.5,26.9,19.5z
			 M26.9,33c-3.3,0-6-2.7-6-6s2.7-6,6-6s6,2.7,6,6C32.9,30.3,30.2,33,26.9,33L26.9,33z"/>
		<path d="M26.9,0C12.1,0,0,12.1,0,26.9s12.1,26.9,26.9,26.9s26.9-12.1,26.9-26.9S41.8,0,26.9,0C26.9,0,26.9,0,26.9,0z M42.1,33.5
			c0.6-1.2,2-1.8,3.3-1.3s1.8,2,1.3,3.3c-0.6,1.2-2,1.8-3.3,1.3c-0.6-0.2-1-0.7-1.3-1.3h-1.9v2.1l-2.5,2.5h-2.1v2.1
			c1.2,0.6,1.8,2,1.3,3.3s-2,1.8-3.3,1.3c-1.2-0.6-1.8-2-1.3-3.3c0.2-0.6,0.7-1,1.3-1.3v-2.1h-5.6v2.1c1.2,0.6,1.8,2,1.3,3.3
			c-0.6,1.2-2,1.8-3.3,1.3c-1.2-0.6-1.8-2-1.3-3.3c0.2-0.6,0.7-1,1.3-1.3v-2.1h-5.6v2.1c1.2,0.6,1.8,2,1.3,3.3
			c-0.6,1.2-2,1.8-3.3,1.3c-1.2-0.6-1.8-2-1.3-3.3c0.2-0.6,0.7-1,1.3-1.3v-2.1h-2.1l-2.6-2.5v-2.1h-1.9c-0.6,1.2-2,1.8-3.2,1.2
			s-1.8-2-1.2-3.2s2-1.8,3.2-1.2c0.6,0.2,1,0.7,1.2,1.2h1.9v-5.6h-1.9c-0.6,1.2-2,1.8-3.3,1.3c-1.2-0.6-1.8-2-1.3-3.3s2-1.8,3.3-1.3
			c0.6,0.2,1,0.7,1.3,1.3h1.9v-5.6h-1.9c-0.6,1.2-2,1.8-3.3,1.3c-1.2-0.6-1.8-2-1.3-3.3s2-1.8,3.3-1.3c0.6,0.2,1,0.7,1.3,1.3h1.9
			v-2.1l2.6-2.6h2.1v-1.9c-1.2-0.6-1.8-2-1.3-3.3c0.6-1.2,2-1.8,3.3-1.3s1.8,2,1.3,3.3c-0.2,0.6-0.7,1-1.3,1.3v1.9H26v-1.9
			c-1.2-0.6-1.8-2-1.2-3.2c0.6-1.2,2-1.8,3.2-1.2s1.8,2,1.2,3.2c-0.2,0.6-0.7,1-1.2,1.2v1.9h5.6v-1.9c-1.2-0.6-1.8-2-1.3-3.3
			s2-1.8,3.3-1.3s1.8,2,1.3,3.3c-0.2,0.6-0.7,1-1.3,1.3v1.9h2.1l2.5,2.5v2.1h1.9c0.6-1.2,2-1.8,3.3-1.3c1.2,0.6,1.8,2,1.3,3.3
			c-0.6,1.2-2,1.8-3.3,1.3c-0.6-0.2-1-0.7-1.3-1.3h-2v5.6h1.9c0.6-1.2,2-1.8,3.2-1.2c1.2,0.6,1.8,2,1.2,3.2c-0.6,1.2-2,1.8-3.2,1.2
			c-0.6-0.2-1-0.7-1.2-1.2h-1.9v5.6L42.1,33.5z"/>
	</g>
</g>
</svg>
