<?xml version="1.0" encoding="utf-8"?>
<!-- Generator: Adobe Illustrator 26.0.1, SVG Export Plug-In . SVG Version: 6.00 Build 0)  -->
<svg version="1.1" id="Layer_1" xmlns="http://www.w3.org/2000/svg" xmlns:xlink="http://www.w3.org/1999/xlink" x="0px" y="0px"
	 viewBox="0 0 100 90" style="enable-background:new 0 0 100 90;" xml:space="preserve">
<path d="M51.3,1.1L20,61.8l31.3,17.3V1.1z"/>
<path d="M49.6,0.2l-31.8,61L1.4,54.5L0,29.7L49.6,0.2z"/>
<path d="M51.3,82.1V90L1.2,57l16,5.7L51.3,82.1z"/>
<path d="M71,38.2l8.9,3.3l0,11.6l20.1,9.7l-7.5,15.9L70.9,68.3l0,5.1l-8.2,0L54.5,68l0-56.8l16.5,0L71,38.2z M71,48.9l6.5,3.1l0-8.8
	L71,40.7L71,48.9z"/>
</svg>
