<?xml version="1.0" encoding="utf-8"?>
<!-- Generator: $$$/GeneralStr/196=Adobe Illustrator 27.6.0, SVG Export Plug-In . SVG Version: 6.00 Build 0)  -->
<svg version="1.1" id="Ebene_1" xmlns="http://www.w3.org/2000/svg" xmlns:xlink="http://www.w3.org/1999/xlink" x="0px" y="0px"
	 width="100px" height="90px" viewBox="0 0 100 90" style="enable-background:new 0 0 100 90;" xml:space="preserve">
<polygon points="14.4,65.6 40.1,12.2 0,38.1 1.1,59.8 "/>
<polygon points="0.9,62.1 40.3,90 40.3,82.5 13.9,67.1 "/>
<polygon points="78.5,63 67.9,67.1 41.5,82.5 41.5,90 79.6,63 "/>
<path d="M37,63c-5.7,0-9.3-6.2-6.4-11.1L46,25.1l-5.2-11.2L16.5,66.7l24.4,14.1l24.4-14.1L63.6,63H37z"/>
<g>
	<polygon points="50.3,17.7 41.6,12.2 47,23.4 	"/>
	<polygon points="66,63 67.3,65.6 73.4,63 	"/>
</g>
<path d="M99.2,52.2c2.2,3.8-0.6,8.5-4.9,8.5H37.5c-4.4,0-7.1-4.7-4.9-8.5L61,2.9c2.2-3.8,7.7-3.8,9.8,0L99.2,52.2L99.2,52.2z
	 M65.9,42c-3,0-5.4,2.4-5.4,5.4s2.4,5.4,5.4,5.4s5.4-2.4,5.4-5.4C71.4,44.4,68.9,42,65.9,42z M60.8,22.4l0.9,16.1
	c0,0.8,0.7,1.3,1.4,1.3h5.7c0.8,0,1.4-0.6,1.4-1.3l0.9-16.1c0-0.8-0.6-1.5-1.4-1.5h-7.5C61.4,20.9,60.7,21.6,60.8,22.4L60.8,22.4z"
	/>
</svg>
