<?xml version="1.0" encoding="utf-8"?>
<!-- Generator: Adobe Illustrator 25.3.1, SVG Export Plug-In . SVG Version: 6.00 Build 0)  -->
<svg version="1.1" id="Ebene_1" xmlns="http://www.w3.org/2000/svg" xmlns:xlink="http://www.w3.org/1999/xlink" x="0px" y="0px"
	 viewBox="0 0 100 90" style="enable-background:new 0 0 100 90;" xml:space="preserve">
<path d="M40.1,12.2L14.4,65.6L1.1,59.8L0,38.1L40.1,12.2z"/>
<path d="M40.2,82.5V90L0.9,62.1l12.9,5.1L40.2,82.5z"/>
<path d="M67.7,67.1L41.4,82.5V90l39.3-27.9"/>
<g>
	<polygon points="55,20.8 41.5,12.2 48.7,27.1 	"/>
	<path d="M59,63l-15,1.8c-5.1,0.6-9.3-3.7-8.7-8.7l1.8-15c0.2-1.7,1-3.4,2.2-4.6l8.1-8.1l-6.7-14.5L16.5,66.7l24.3,14.1l24.3-14.1
		l-2.4-5.1C61.7,62.3,60.4,62.9,59,63z"/>
	<polygon points="64.5,59.9 67.2,65.6 80.5,59.8 81.3,43 	"/>
</g>
<path d="M97.5,8.8l-6.3-6.3c-3.3-3.3-8.7-3.3-12.1,0L40.9,40.9l-1.5,13.2c-0.4,3.9,2.8,7.1,6.6,6.7l13.2-1.5l38.3-38.4h0
	C100.8,17.6,100.8,12.2,97.5,8.8z M56,52.6l-9.5,1.1l1.1-9.5l27.1-27.2l8.5,8.5L56,52.6z M92.6,16l-4.5,4.5L79.6,12l4.5-4.5
	c0.6-0.6,1.6-0.6,2.2,0l6.3,6.3C93.2,14.4,93.2,15.3,92.6,16z"/>
</svg>
