<?xml version="1.0" encoding="utf-8"?>
<!-- Generator: Adobe Illustrator 26.0.1, SVG Export Plug-In . SVG Version: 6.00 Build 0)  -->
<svg version="1.1" id="Layer_1" xmlns="http://www.w3.org/2000/svg" xmlns:xlink="http://www.w3.org/1999/xlink" x="0px" y="0px"
	 viewBox="0 0 100 90" style="enable-background:new 0 0 100 90;" xml:space="preserve">
<path d="M51.3,1.1L20,61.8l31.3,17.3V1.1z"/>
<path d="M49.6,0.2l-31.8,61L1.4,54.5L0,29.7L49.6,0.2z"/>
<path d="M51.3,82.1V90L1.2,57l16,5.7L51.3,82.1z"/>
<path d="M93.4,14.5H60.5c-3.5,0-6.3,2.8-6.3,6.3v24.7c0,1.3,0.3,2.2,0.9,3.2l16.4,25.6c1.9,3.2,6.3,3.8,9.2,1.9
	c0.6-0.6,1.3-1.3,1.9-1.9l16.4-25.6c0.6-0.9,0.9-1.9,0.9-3.2V20.9C100,17.4,96.8,14.5,93.4,14.5L93.4,14.5z M94.3,45.8
	c0,0.3,0,0.6-0.3,0.9l-13.9,19c-0.6,0.9-1.9,0.9-2.5,0.3c-0.3-0.3-0.6-0.6-0.6-1.3V23.1c0-1.9,1.6-3.8,3.5-3.8l0,0h12.3
	c0.9,0,1.9,0.9,1.9,1.9l0,0L94.3,45.8z"/>
</svg>
