<?xml version="1.0" encoding="utf-8"?>
<!-- Generator: $$$/GeneralStr/196=Adobe Illustrator 27.6.0, SVG Export Plug-In . SVG Version: 6.00 Build 0)  -->
<svg version="1.1" id="Ebene_1" xmlns="http://www.w3.org/2000/svg" xmlns:xlink="http://www.w3.org/1999/xlink" x="0px" y="0px"
	 width="496px" height="512px" viewBox="0 0 496 512" style="enable-background:new 0 0 496 512;" xml:space="preserve">
<path d="M248,8C111,8,0,119,0,256s111,248,248,248s248-111,248-248S385,8,248,8z M152,214.6l-28.7,28.7
	c-14.8,14.8-37.8-7.5-22.6-22.6l28.7-28.7l-28.7-28.7c-15-15,7.7-37.6,22.6-22.6l28.7,28.7l28.7-28.7c15-15,37.6,7.7,22.6,22.6
	L174.6,192l28.7,28.7c15.2,15.2-7.9,37.4-22.6,22.6L152,214.6z M248,416c-35.3,0-64-28.7-64-64s28.7-64,64-64s64,28.7,64,64
	S283.3,416,248,416z M395.3,220.7c15.2,15.2-7.9,37.4-22.6,22.6L344,214.6l-28.7,28.7c-14.8,14.8-37.8-7.5-22.6-22.6l28.7-28.7
	l-28.7-28.7c-15-15,7.7-37.6,22.6-22.6l28.7,28.7l28.7-28.7c15-15,37.6,7.7,22.6,22.6L366.6,192L395.3,220.7L395.3,220.7z"/>
</svg>
