<?xml version="1.0" encoding="utf-8"?>
<!-- Generator: $$$/GeneralStr/196=Adobe Illustrator 27.6.0, SVG Export Plug-In . SVG Version: 6.00 Build 0)  -->
<svg version="1.1" id="Ebene_1" xmlns="http://www.w3.org/2000/svg" xmlns:xlink="http://www.w3.org/1999/xlink" x="0px" y="0px"
	 width="53.9px" height="53.9px" viewBox="0 0 53.9 53.9" style="enable-background:new 0 0 53.9 53.9;" xml:space="preserve">
<g id="Ebene_2_00000073687334241431448330000006105337652971841194_">
	<g id="Ebene_1-2">
		<path d="M26.9,0C12.1,0,0,12.1,0,26.9s12.1,26.9,26.9,26.9s26.9-12.1,26.9-26.9S41.8,0,26.9,0C26.9,0,26.9,0,26.9,0z M25.9,48.5
			l-4.5-5.2L17,48.5V26.9l2.9,5H26L25.9,48.5z M36.9,27.2V50l-4.5-5.2L28,50V31.9h6l2.9-5L36.9,27.2z M33.7,29.2H20.2l-6.7-11.6
			l6.7-11.6h13.4l6.7,11.6L33.7,29.2z"/>
		<path d="M31.6,12c1.3,1.1,2.2,2.6,2.5,4.3l2.5-4.3H31.6z"/>
		<path d="M22.2,12h-4.9l2.5,4.3C20.1,14.6,21,13.1,22.2,12z"/>
		<path d="M26.9,24.8c-0.8,0-1.7-0.1-2.5-0.4l2.5,4.2l2.5-4.2C28.6,24.6,27.8,24.8,26.9,24.8z"/>
		<circle cx="26.9" cy="17.5" r="5.8"/>
	</g>
</g>
</svg>
