<?xml version="1.0" encoding="utf-8"?>
<!-- Generator: $$$/GeneralStr/196=Adobe Illustrator 27.6.0, SVG Export Plug-In . SVG Version: 6.00 Build 0)  -->
<svg version="1.1" id="Ebene_1" xmlns="http://www.w3.org/2000/svg" xmlns:xlink="http://www.w3.org/1999/xlink" x="0px" y="0px"
	 width="53.9px" height="53.9px" viewBox="0 0 53.9 53.9" style="enable-background:new 0 0 53.9 53.9;" xml:space="preserve">
<g id="Ebene_2_00000083793441419116685940000007150314368302869903_">
	<g id="Ebene_1-2">
		<path d="M26.9,0C12.1,0,0,12.1,0,26.9s12.1,26.9,26.9,26.9s26.9-12.1,26.9-26.9S41.8,0,26.9,0C26.9,0,26.9,0,26.9,0z M47.4,34.6
			l-5.6,5.6H12l-5.6-5.6v-8.3h11.1l4.3,4.3H32l4.3-4.3h11.1V34.6z M35.8,23.3l-4.3,4.3h-9.1l-4.3-4.3H6.4v-4l5.6-5.6h29.8l5.6,5.6v4
			L35.8,23.3z"/>
	</g>
</g>
</svg>
