<?xml version="1.0" encoding="utf-8"?>
<!-- Generator: $$$/GeneralStr/196=Adobe Illustrator 27.6.0, SVG Export Plug-In . SVG Version: 6.00 Build 0)  -->
<svg version="1.1" id="Ebene_1" xmlns="http://www.w3.org/2000/svg" xmlns:xlink="http://www.w3.org/1999/xlink" x="0px" y="0px"
	 width="53.9px" height="53.9px" viewBox="0 0 53.9 53.9" style="enable-background:new 0 0 53.9 53.9;" xml:space="preserve">
<g id="Ebene_2_00000032610257121066216910000005767523146283491736_">
	<g id="Ebene_1-2">
		<path d="M26.9,0C12.1,0,0,12.1,0,26.9s12.1,26.9,26.9,26.9s26.9-12.1,26.9-26.9S41.8,0,26.9,0C26.9,0,26.9,0,26.9,0z M34.9,7.5
			c3.7,0,6.7,3,6.7,6.7s-3,6.7-6.7,6.7s-6.7-3-6.7-6.7l0,0C28.2,10.5,31.2,7.5,34.9,7.5C35,7.5,35,7.5,34.9,7.5L34.9,7.5z
			 M18.9,14.9c3.7,0,6.7,3,6.7,6.7s-3,6.7-6.7,6.7s-6.7-3-6.7-6.7l0,0C12.2,17.9,15.2,14.9,18.9,14.9L18.9,14.9z M30.6,42.5H7.2
			c0-6.5,5.2-12.9,11.7-12.9c1.8,0,3.5,0.5,5,1.4c1.6-4.8,6-8.7,11-8.7c6.5,0,11.7,6.4,11.7,12.9H28.3
			C29.8,37.3,30.6,39.9,30.6,42.5z"/>
	</g>
</g>
</svg>
