<?xml version="1.0" encoding="utf-8"?>
<!-- Generator: $$$/GeneralStr/196=Adobe Illustrator 27.6.0, SVG Export Plug-In . SVG Version: 6.00 Build 0)  -->
<svg version="1.1" id="Ebene_1" xmlns="http://www.w3.org/2000/svg" xmlns:xlink="http://www.w3.org/1999/xlink" x="0px" y="0px"
	 width="100px" height="100px" viewBox="0 0 100 100" style="enable-background:new 0 0 100 100;" xml:space="preserve">
<style type="text/css">
	.st0{fill:#5B5B5B;}
</style>
<g>
	<path class="st0" d="M50,87.8c20.8,0,37.8-16.9,37.8-37.8c0-20.8-16.9-37.8-37.8-37.8c-20.8,0-37.8,16.9-37.8,37.8
		C12.2,70.8,29.2,87.8,50,87.8z M82.6,49.9h-4.2V50c0,15-11.8,27.4-26.6,28.3V64.1h-3.5v18.5c-17.1-0.9-30.8-15.1-30.9-32.5l4.2-0.1
		c0-15,11.8-27.4,26.6-28.3v14.2h3.5V17.5C68.8,18.4,82.5,32.5,82.6,49.9z"/>
	<circle class="st0" cx="50" cy="50" r="11.1"/>
	<path class="st0" d="M50,0C22.4,0,0,22.4,0,50s22.4,50,50,50s50-22.4,50-50S77.6,0,50,0z M32.6,8l-0.7-1.8
		C37.4,3.9,43.5,2.6,50,2.6v2C44,4.6,38.1,5.7,32.6,8z M16.5,16.5l2.8,2.7c2.7-2.7,5.7-5,8.9-6.9l1.6,2.8c6.1-3.6,13.1-5.4,20.2-5.4
		l0,0c7,0,14,1.8,20,5.3l2.6-4.5c-1.7-1-3.5-1.8-5.3-2.6L68,6.1c5.8,2.4,11,5.9,15.4,10.3l-2.7,2.8c4.1,4.1,7.3,8.8,9.5,14.1
		l3.6-1.5c2.3,5.6,3.6,11.7,3.6,18.1h-2v-0.1l-5.2,0.1V50c0,14.3-7.7,27.7-20.1,34.9l1.6,2.8c-1.6,0.9-3.3,1.8-5,2.5l1.5,3.6
		c-5.6,2.3-11.7,3.6-18.1,3.7v-3.9H50c-5.7,0-11.3-1.1-16.5-3.2L32,93.9c-5.8-2.4-11-5.9-15.4-10.2l1.4-1.4c2.8,2.7,5.9,5.2,9.3,7.2
		l2.6-4.5C17.5,77.7,9.8,64.4,9.7,50.1H6.5V50c0-5.8,1.1-11.4,3.3-16.6l-3.6-1.5C8.6,26.1,12.1,20.9,16.5,16.5z M4.6,50.2
		c0,6,1.3,11.9,3.5,17.4l-1.8,0.8C4,62.8,2.7,56.7,2.6,50.3L4.6,50.2z M83.6,83.4L82.2,82c4.2-4.2,7.5-9.3,9.8-14.8l1.8,0.8
		C91.4,73.8,87.9,79,83.6,83.4z"/>
</g>
</svg>
