<svg xmlns="http://www.w3.org/2000/svg" viewBox="0 0 53.86 53.86"><defs><style>.cls-1{fill:#1d1d1b;}</style></defs><g id="Ebene_2" data-name="Ebene 2"><g id="Ebene_1-2" data-name="Ebene 1"><path class="cls-1" d="M25.72,31.29c.05-1.07.06-2.14.06-3.22-1.07,0-2.15,0-3.21.07Z"/><path class="cls-1" d="M28.07,25.78c.91,0,1.82,0,2.71,0l-2.66-2.67C28.09,24,28.08,24.87,28.07,25.78Z"/><path class="cls-1" d="M11.66,31.19l11,11a19.66,19.66,0,0,0,1.26-2.39l-9.88-9.88A17.74,17.74,0,0,0,11.66,31.19Z"/><path class="cls-1" d="M19.51,28.42a21.2,21.2,0,0,0-3,.63l8.31,8.31a22.69,22.69,0,0,0,.63-3l-5.93-5.93Z"/><path class="cls-1" d="M26.93,0A26.93,26.93,0,1,0,53.86,26.93,26.93,26.93,0,0,0,26.93,0ZM46,22.73c-6,5-12.09,5.32-18,5.34,0,5.88-.34,11.92-5.34,18A2.78,2.78,0,1,1,21,44.51l.27-.35L9.7,32.56l-.35.27a2.76,2.76,0,1,1-1.53-1.7c6-5,12.09-5.32,18-5.34,0-5.88.34-11.92,5.34-18a2.77,2.77,0,1,1,1.7,1.53c-.17.21-.33.43-.49.64L43.87,21.52c.21-.16.43-.32.64-.5A2.75,2.75,0,1,1,46,22.73Z"/><path class="cls-1" d="M29.77,14.41l9.68,9.68a20.32,20.32,0,0,0,2.42-1.22L31,12A19.71,19.71,0,0,0,29.77,14.41Z"/><path class="cls-1" d="M28.36,20l5.52,5.52A25.13,25.13,0,0,0,37,24.92l-8-8A25.13,25.13,0,0,0,28.36,20Z"/></g></g></svg>