<?xml version="1.0" encoding="utf-8"?>
<!-- Generator: $$$/GeneralStr/196=Adobe Illustrator 27.6.0, SVG Export Plug-In . SVG Version: 6.00 Build 0)  -->
<svg version="1.1" id="Ebene_1" xmlns="http://www.w3.org/2000/svg" xmlns:xlink="http://www.w3.org/1999/xlink" x="0px" y="0px"
	 width="53.9px" height="53.9px" viewBox="0 0 53.9 53.9" style="enable-background:new 0 0 53.9 53.9;" xml:space="preserve">
<g id="Ebene_2_00000057138622341684982510000002622528433100240305_">
	<g id="Ebene_1-2">
		<path d="M25.7,31.3c0-1.1,0.1-2.1,0.1-3.2c-1.1,0-2.1,0-3.2,0.1L25.7,31.3z"/>
		<path d="M28.1,25.8c0.9,0,1.8,0,2.7,0l-2.7-2.7C28.1,24,28.1,24.9,28.1,25.8z"/>
		<path d="M11.7,31.2l11,11c0.5-0.8,0.9-1.6,1.3-2.4L14,29.9C13.2,30.3,12.4,30.7,11.7,31.2z"/>
		<path d="M19.5,28.4c-1,0.1-2,0.3-3,0.6l8.3,8.3c0.3-1,0.5-2,0.6-3L19.5,28.4L19.5,28.4z"/>
		<path d="M26.9,0C12.1,0,0,12.1,0,26.9s12.1,26.9,26.9,26.9s26.9-12.1,26.9-26.9S41.8,0,26.9,0C26.9,0,26.9,0,26.9,0z M46,22.7
			c-6,5-12.1,5.3-18,5.3c0,5.9-0.3,11.9-5.3,18c0.6,1.4-0.1,3-1.5,3.6c-1.4,0.6-3-0.1-3.6-1.5c-0.6-1.4,0.1-3,1.5-3.6
			c0.6-0.3,1.3-0.3,2-0.1l0.3-0.3L9.7,32.6l-0.4,0.3c0.5,1.5-0.3,3-1.8,3.5s-3-0.3-3.5-1.8s0.3-3,1.8-3.5c0.6-0.2,1.3-0.2,1.9,0.1
			c6-5,12.1-5.3,18-5.3c0-5.9,0.3-11.9,5.3-18c-0.6-1.4,0-3,1.4-3.6s3,0,3.6,1.4s0,3-1.4,3.6c-0.6,0.3-1.3,0.3-1.9,0.1
			c-0.2,0.2-0.3,0.4-0.5,0.6l11.5,11.6c0.2-0.2,0.4-0.3,0.6-0.5c-0.4-1.5,0.4-3,1.8-3.4c1.5-0.4,3,0.4,3.4,1.8
			c0.4,1.5-0.4,3-1.8,3.4C47.3,23.1,46.6,23,46,22.7z"/>
		<path d="M29.8,14.4l9.7,9.7c0.8-0.4,1.6-0.8,2.4-1.2L31,12C30.5,12.8,30.1,13.6,29.8,14.4z"/>
		<path d="M28.4,20l5.5,5.5c1.1-0.1,2.1-0.3,3.1-0.6l-8-8C28.7,17.9,28.5,19,28.4,20z"/>
	</g>
</g>
</svg>
