<?xml version="1.0" encoding="utf-8"?>
<!-- Generator: $$$/GeneralStr/196=Adobe Illustrator 27.6.0, SVG Export Plug-In . SVG Version: 6.00 Build 0)  -->
<svg version="1.1" id="Ebene_1" xmlns="http://www.w3.org/2000/svg" xmlns:xlink="http://www.w3.org/1999/xlink" x="0px" y="0px"
	 width="53.9px" height="53.9px" viewBox="0 0 53.9 53.9" style="enable-background:new 0 0 53.9 53.9;" xml:space="preserve">
<g id="Ebene_2_00000094610842648267722910000010287577522321804988_">
	<g id="Ebene_1-2">
		<path d="M30.5,42.7c-8.7-4.2-12.4-14.7-8.1-23.5c1.7-3.5,4.6-6.4,8.1-8.1V0.2C29.3,0.1,28.1,0,26.9,0C12.1,0,0,12.1,0,26.9
			s12.1,26.9,26.9,26.9c1.2,0,2.4-0.1,3.6-0.2V42.7z"/>
		<path d="M38,15.8c-1.4,0-2.7,0.3-4,0.8v20.7c1.3,0.5,2.6,0.8,4,0.8V15.8z"/>
		<path d="M27,26.9c0,3.1,1.3,6,3.5,8.1V18.8C28.3,20.9,27,23.9,27,26.9z"/>
		<path d="M34,0.9v8.9c1.3-0.3,2.7-0.5,4-0.5V4.9h2.4v4.6c1.2,0.2,2.3,0.4,3.5,0.8v7c-1.1-0.6-2.2-1.1-3.5-1.3v21.9
			c1.2-0.2,2.4-0.7,3.5-1.3v7c-1.1,0.4-2.3,0.7-3.5,0.8v4.6H38v-4.4c-1.3,0-2.7-0.2-4-0.5v8.9c14.4-3.9,22.9-18.7,19-33
			C50.5,10.6,43.3,3.4,34,0.9L34,0.9z"/>
	</g>
</g>
</svg>
