<svg xmlns="http://www.w3.org/2000/svg" viewBox="0 0 53.86 53.86"><defs><style>.cls-1{fill:#1d1d1b;}</style></defs><g id="Ebene_2" data-name="Ebene 2"><g id="Ebene_1-2" data-name="Ebene 1"><path class="cls-1" d="M30.52,42.73a17.56,17.56,0,0,1,0-31.6V.25A26.61,26.61,0,0,0,26.93,0a26.93,26.93,0,0,0,0,53.86,26.61,26.61,0,0,0,3.59-.25Z"/><path class="cls-1" d="M38,15.77a11.05,11.05,0,0,0-4,.81V37.27a11.06,11.06,0,0,0,4,.82Z"/><path class="cls-1" d="M27,26.93A11.16,11.16,0,0,0,30.52,35V18.82A11.16,11.16,0,0,0,27,26.93Z"/><path class="cls-1" d="M34,.94V9.87a17.24,17.24,0,0,1,4-.5V4.92h2.4V9.5a17.37,17.37,0,0,1,3.47.82v7A11.08,11.08,0,0,0,40.42,16V37.87a11.08,11.08,0,0,0,3.47-1.34v7a17.36,17.36,0,0,1-3.47.81v4.58H38V44.49a17.79,17.79,0,0,1-4-.5v8.93a26.93,26.93,0,0,0,0-52Z"/></g></g></svg>