<?xml version="1.0" encoding="utf-8"?>
<!-- Generator: $$$/GeneralStr/196=Adobe Illustrator 27.6.0, SVG Export Plug-In . SVG Version: 6.00 Build 0)  -->
<svg version="1.1" id="Ebene_1" xmlns="http://www.w3.org/2000/svg" xmlns:xlink="http://www.w3.org/1999/xlink" x="0px" y="0px"
	 width="512px" height="512px" viewBox="0 0 512 512" style="enable-background:new 0 0 512 512;" xml:space="preserve">
<path d="M256,0C114.6,0,0,100.3,0,224c0,70.1,36.9,132.6,94.5,173.7c9.6,6.9,15.2,18.1,13.5,29.9l-9.4,66.2
	c-1.4,9.6,6,18.2,15.7,18.2H192v-56c0-4.4,3.6-8,8-8h16c4.4,0,8,3.6,8,8v56h64v-56c0-4.4,3.6-8,8-8h16c4.4,0,8,3.6,8,8v56h77.7
	c9.7,0,17.1-8.6,15.7-18.2l-9.4-66.2c-1.7-11.7,3.8-23,13.5-29.9C475.1,356.6,512,294.1,512,224C512,100.3,397.4,0,256,0z M160,320
	c-35.3,0-64-28.7-64-64s28.7-64,64-64s64,28.7,64,64S195.3,320,160,320z M352,320c-35.3,0-64-28.7-64-64s28.7-64,64-64
	s64,28.7,64,64S387.3,320,352,320z"/>
</svg>
