<?xml version="1.0" encoding="utf-8"?>
<!-- Generator: $$$/GeneralStr/196=Adobe Illustrator 27.6.0, SVG Export Plug-In . SVG Version: 6.00 Build 0)  -->
<svg version="1.1" id="Ebene_1" xmlns="http://www.w3.org/2000/svg" xmlns:xlink="http://www.w3.org/1999/xlink" x="0px" y="0px"
	 width="448px" height="512px" viewBox="0 0 448 512" style="enable-background:new 0 0 448 512;" xml:space="preserve">
<path d="M277.4,12C261.1,4.5,243.1,0,224,0c-53.7,0-99.5,33.1-118.5,80h81.2C186.7,80,277.4,12,277.4,12z M342.5,80
	c-7.9-19.5-20.7-36.2-36.5-49.5L240,80H342.5z M224,256c70.7,0,128-57.3,128-128c0-5.5-1-10.7-1.6-16H97.6c-0.7,5.3-1.6,10.5-1.6,16
	C96,198.7,153.3,256,224,256z M80,299.7V512h128.3l-98.4-221.5C99.5,292.4,89.5,295.5,80,299.7z M0,464c0,26.5,21.5,48,48,48V320.2
	c-29.1,24.7-48,61-48,102.2V464z M256,416h-55.4l42.7,96H256c26.5,0,48-21.5,48-48S282.5,416,256,416z M313.6,288h-16.7
	c-22.2,10.2-46.9,16-72.9,16s-50.7-5.8-72.9-16h-7.4l42.7,96H256c44.1,0,80,35.9,80,80c0,18.1-6.3,34.6-16.4,48H400
	c26.5,0,48-21.5,48-48v-41.6C448,348.2,387.8,288,313.6,288z"/>
</svg>
