<?xml version="1.0" encoding="utf-8"?>
<!-- Generator: $$$/GeneralStr/196=Adobe Illustrator 27.6.0, SVG Export Plug-In . SVG Version: 6.00 Build 0)  -->
<svg version="1.1" id="Ebene_1" xmlns="http://www.w3.org/2000/svg" xmlns:xlink="http://www.w3.org/1999/xlink" x="0px" y="0px"
	 width="53.9px" height="53.9px" viewBox="0 0 53.9 53.9" style="enable-background:new 0 0 53.9 53.9;" xml:space="preserve">
<g id="Ebene_2_00000038382430788713392540000014496796364925679282_">
	<g id="Ebene_1-2">
		<polygon points="25.5,20.1 28.7,21.6 31.8,18.4 28.4,17.2 		"/>
		<polygon points="22,35.4 25.5,36.7 28.4,33.8 25.2,32.3 		"/>
		<path d="M26.9,0C12.1,0,0,12.1,0,26.9s12.1,26.9,26.9,26.9s26.9-12.1,26.9-26.9S41.8,0,26.9,0C26.9,0,26.9,0,26.9,0z M24.5,49.4
			l-4.9-1l-3-2.9l1.8-1.8l-11.4-4l3-8.4L20.8,35l4.1-4.1l4.4,2l9.6-9.6l5.9,5.9L24.5,49.4z M43.8,22.7l-10.7-3.8L28.9,23l-4.4-2
			l-9.6,9.6L9,24.8L29.3,4.5l4.9,1l2.9,2.9l-1.8,1.8l11.4,4L43.8,22.7z"/>
	</g>
</g>
</svg>
