<?xml version="1.0" encoding="utf-8"?>
<!-- Generator: $$$/GeneralStr/196=Adobe Illustrator 27.6.0, SVG Export Plug-In . SVG Version: 6.00 Build 0)  -->
<svg version="1.1" id="Ebene_1" xmlns="http://www.w3.org/2000/svg" xmlns:xlink="http://www.w3.org/1999/xlink" x="0px" y="0px"
	 width="53.9px" height="53.9px" viewBox="0 0 53.9 53.9" style="enable-background:new 0 0 53.9 53.9;" xml:space="preserve">
<g id="Ebene_2_00000091015776969696279480000016722066981273213374_">
	<g id="Ebene_1-2">
		<path d="M46.4,8.3c-2.3,3-6.2,7.9-11.2,13.4c0.5,0.9,0.9,1.8,1.2,2.7c5.7-5.1,10.2-8.2,10.2-8.2c-2.8,3.9-5.8,7.6-9,11.1
			c0.5,1.3,0.8,2.6,0.8,3.9c0,6.3-5.1,11.4-11.4,11.5c-1.6,0-3.1-0.3-4.6-0.9c-3.7,3.1-6.3,4.9-6.3,4.9s1.6-2.3,4.5-5.8
			c-1-0.6-1.9-1.4-2.6-2.4c-4,3.5-7.4,6.2-9.7,8c10.8,10.3,27.8,9.9,38.1-0.9C56.3,35.1,56.3,18.7,46.4,8.3z"/>
		<path d="M21.3,21.3c-1.6,1.6-3.1,3.2-4.6,4.8c-0.7,1.6-1.1,3.4-1.3,5.1l0,0c2.5-2.1,5.3-4.7,8.2-7.5c3.1-3.1,5.8-6.1,7.9-8.6
			c-0.4-0.7-0.8-1.4-1.2-2C27.7,15.2,24.5,18.1,21.3,21.3z"/>
		<path d="M20.7,40.8c0.6,0.4,1.2,0.7,1.8,1c2.9-2.4,6.4-5.5,10.1-9.2c1.8-1.8,3.5-3.6,5-5.3c-0.3-0.9-0.7-1.9-1.1-2.9
			c-2,1.7-4.1,3.7-6.2,5.8C26.9,33.6,23.7,37.1,20.7,40.8z"/>
		<path d="M7.3,37.7c2.9-4,6.1-7.9,9.5-11.6c3-7.7,10.2-18.8,10.2-18.8s1.5,2.4,3.5,5.7c4.3-3.6,7.3-5.7,7.3-5.7s-2.3,3.2-6.1,7.7
			c0.5,0.9,1,1.8,1.5,2.8c5.1-4.6,9.5-8.1,12.4-10.3C34.9-2.9,17.8-2.6,7.5,8.1c-10.1,10.4-10.1,27,0,37.5c1.9-2.5,4.9-6.2,8.7-10.5
			c-0.4-1.2-0.7-2.5-0.7-3.8C10.7,35.3,7.3,37.7,7.3,37.7z"/>
		<path d="M35.2,21.7c-0.6-1.3-1.3-2.6-2-3.9c-2.5,2.3-5.2,4.8-7.9,7.5c-3.4,3.4-6.4,6.7-9.1,9.7c0.4,1.2,1.1,2.4,1.9,3.4
			c3.2-2.8,6.9-6.1,10.5-9.8C30.9,26.2,33.1,23.9,35.2,21.7z"/>
	</g>
</g>
</svg>
