<svg xmlns="http://www.w3.org/2000/svg" viewBox="0 0 53.86 53.86"><defs><style>.cls-1{fill:#1d1d1b;}</style></defs><g id="Ebene_2" data-name="Ebene 2"><g id="Ebene_1-2" data-name="Ebene 1"><path class="cls-1" d="M46.38,8.31c-2.34,3-6.24,7.89-11.23,13.38.45.9.86,1.8,1.24,2.67,5.74-5.07,10.19-8.2,10.19-8.2a133.67,133.67,0,0,1-9,11.13,13,13,0,0,1,.83,3.91A11.43,11.43,0,0,1,22.44,41.71c-3.73,3.07-6.28,4.87-6.28,4.87s1.65-2.35,4.5-5.83a11.29,11.29,0,0,1-2.61-2.36c-4,3.45-7.39,6.18-9.74,8A26.93,26.93,0,0,0,46.38,8.31Z"/><path class="cls-1" d="M21.31,21.31c-1.63,1.62-3.15,3.23-4.55,4.77A15.9,15.9,0,0,0,15.5,31.2h0c2.47-2.11,5.3-4.66,8.17-7.54,3.06-3.06,5.75-6.06,7.94-8.65-.41-.71-.8-1.39-1.19-2C27.74,15.23,24.55,18.06,21.31,21.31Z"/><path class="cls-1" d="M20.66,40.75a11.27,11.27,0,0,0,1.78,1c2.87-2.37,6.45-5.5,10.11-9.16,1.8-1.8,3.47-3.57,5-5.26-.31-.92-.7-1.9-1.14-2.93-2,1.73-4.07,3.69-6.2,5.83A141.47,141.47,0,0,0,20.66,40.75Z"/><path class="cls-1" d="M7.28,37.7a135.14,135.14,0,0,1,9.48-11.62c3-7.73,10.17-18.8,10.17-18.8s1.54,2.38,3.49,5.7c4.27-3.58,7.28-5.7,7.28-5.7S35.42,10.51,31.61,15c.51.9,1,1.84,1.55,2.79,5.08-4.56,9.53-8.13,12.39-10.33A26.93,26.93,0,0,0,7.48,45.55c1.93-2.5,4.9-6.23,8.68-10.53a11.22,11.22,0,0,1-.66-3.81C10.74,35.26,7.28,37.7,7.28,37.7Z"/><path class="cls-1" d="M35.15,21.69c-.62-1.29-1.3-2.6-2-3.88-2.52,2.26-5.19,4.76-7.89,7.46C21.9,28.65,18.83,32,16.16,35a11.17,11.17,0,0,0,1.89,3.37c3.25-2.83,6.86-6.13,10.53-9.81C30.93,26.23,33.13,23.91,35.15,21.69Z"/></g></g></svg>