<?xml version="1.0" encoding="UTF-8"?><svg id="Ebene_2" xmlns="http://www.w3.org/2000/svg" viewBox="0 0 100 100"><defs><style>.cls-1{fill:#be1622;}</style></defs><polygon class="cls-1" points="55.24 36.89 50 33.87 44.76 36.89 44.76 51.91 46.59 52.97 46.59 61.88 50 63.85 53.41 61.88 53.41 52.97 55.24 51.91 55.24 36.89"/><polygon class="cls-1" points="50 66.19 44.76 69.21 44.76 75.21 50 78.23 55.24 75.21 55.24 69.21 50 66.19"/><path class="cls-1" d="m79,24.97l-8.15,8.15c5.57,5.57,8.64,12.98,8.64,20.86,0,16.26-13.23,29.49-29.49,29.49s-29.49-13.23-29.49-29.49c0-14.68,10.79-26.85,24.86-29.09v7.57l27.79-13.73-27.79-13.73v8.25C24.93,15.56,8.98,32.94,8.98,53.98c0,22.62,18.4,41.02,41.02,41.02s41.02-18.4,41.02-41.02c0-10.96-4.27-21.26-12.02-29.01Z"/></svg>