<?xml version="1.0" encoding="UTF-8"?><svg id="Ebene_2" xmlns="http://www.w3.org/2000/svg" viewBox="0 0 100 100"><defs><style>.cls-1{fill:#be1622;}</style></defs><path class="cls-1" d="m50,5L3.28,42.22v15.57l46.72,37.22,46.72-37.22v-15.57L50,5Zm31.43,54.12c-3.96,13.62-16.55,23.61-31.43,23.61-15.85,0-29.11-11.33-32.1-26.32h-6.41l6.04-10.46c2-16.15,15.8-28.69,32.47-28.69s30.99,13.01,32.58,29.59h5.93l-7.08,12.27Z"/><path class="cls-1" d="m50,22.27c-14.19,0-25.92,10.72-27.54,24.48l5.58,9.67h-5.02c2.9,12.21,13.89,21.32,26.98,21.32s24.44-9.42,27.12-21.93l-5.16-8.94h5.6c-1.57-13.82-13.32-24.59-27.55-24.59Zm6.17,50.3l-6.17,3.56-6.17-3.56v-7.06l6.17-3.56,6.17,3.56v7.06Zm0-27.44l-2.15,1.24v10.49l-4.02,2.32-4.02-2.32v-10.49l-2.15-1.24v-17.69l6.17-3.56,6.17,3.56v17.69Z"/></svg>