<?xml version="1.0" encoding="UTF-8"?><svg id="Ebene_2" xmlns="http://www.w3.org/2000/svg" viewBox="0 0 100 100"><defs><style>.cls-1{fill:#f9faec;}</style></defs><path class="cls-1" d="m89.29,49.82v.03h-6.77v-4.21l-9.06-.64c-.62-3.03-1.83-5.84-3.47-8.34l4.82-5.55c.12.16.25.31.37.47l8.01-5.88c-1.27-1.74-2.69-3.37-4.22-4.88l3.38-3.4c-8.66-8.6-20.15-13.33-32.39-13.33h-.09v6.63h.13c4.14,0,8.19.65,12.02,1.88l-2.47,7.71c3.28,1.05,6.37,2.68,9.13,4.76l-5.52,4.79c-2.5-1.65-5.31-2.85-8.34-3.47l-.64-9.06h-8.36l-.64,9.06c-3.03.62-5.84,1.82-8.34,3.47l-5.52-4.79c2.71-2.04,5.74-3.64,8.96-4.7l-3.1-9.44c-6.13,2.01-11.76,5.51-16.33,10.09l-3.4-3.38c-8.62,8.66-13.37,20.16-13.36,32.44h1.41s5.22-.06,5.22-.06c0-8.38,2.62-16.36,7.45-23.02l6.56,4.75c.15-.21.33-.41.48-.62l4.82,5.55c-1.65,2.5-2.85,5.31-3.47,8.34l-9.06.64v4.42l-8.62.02c.02,8.75,2.75,17.1,7.89,24.15l8.03-5.86c-3.1-4.24-5.02-9.11-5.69-14.26l7.45.53c.62,3.03,1.83,5.84,3.47,8.34l-5.96,6.88,5.91,5.91,6.88-5.96c2.5,1.65,5.31,2.85,8.34,3.47l.54,7.6c-1.81-.25-3.59-.63-5.32-1.19l-2.49,7.7c-5.83-1.88-11.18-5.12-15.64-9.57l-4.68,4.69c8.67,8.64,20.18,13.4,32.42,13.4h.04l-.03-4.78c4.35,0,8.63-.68,12.73-2.01l-3.08-9.45c-1.75.57-3.55.96-5.38,1.21l.54-7.6c3.03-.62,5.84-1.83,8.34-3.47l6.88,5.96,5.91-5.91-5.96-6.88c1.65-2.5,2.85-5.31,3.47-8.34l7.45-.53c-.67,5.12-2.58,9.98-5.66,14.2l6.55,4.76c-1.2,1.65-2.53,3.22-4,4.68l4.69,4.68c8.66-8.67,13.43-20.2,13.43-32.45v-.18h-6.63Zm-39.29,13.39c-7.39,0-13.39-6.01-13.39-13.39s6.01-13.39,13.39-13.39,13.39,6.01,13.39,13.39-6.01,13.39-13.39,13.39Z"/></svg>