<?xml version="1.0" encoding="UTF-8"?><svg id="Ebene_2" xmlns="http://www.w3.org/2000/svg" viewBox="0 0 100 100"><defs><style>.cls-1{fill:#f9faec;}</style></defs><polygon class="cls-1" points="89.7 36.04 75.2 50.55 75.2 65.08 64.53 75.74 60.47 71.68 55.51 90.2 74.03 85.24 69.97 81.18 82.89 68.26 82.89 53.73 95.14 41.48 89.7 36.04"/><polygon class="cls-1" points="35.47 75.74 24.8 65.08 24.8 50.55 10.3 36.04 4.86 41.48 17.11 53.73 17.11 68.26 30.03 81.18 25.97 85.24 44.49 90.2 39.53 71.68 35.47 75.74"/><polygon class="cls-1" points="65.64 56.03 59.85 56.03 59.85 40.82 70.21 30.47 70.21 9.8 62.45 9.8 62.45 27.26 52.1 37.61 52.1 56.03 47.9 56.03 47.9 37.61 37.55 27.26 37.55 9.8 29.79 9.8 29.79 30.47 40.15 40.82 40.15 56.03 34.36 56.03 44.02 72.76 50 62.41 55.98 72.76 65.64 56.03"/></svg>