<?xml version="1.0" encoding="UTF-8"?><svg id="Ebene_2" xmlns="http://www.w3.org/2000/svg" viewBox="0 0 100 100"><defs><style>.cls-1{fill:#f9faec;}</style></defs><path class="cls-1" d="m56.97,37.52c3.01-2.63,5.91-5.37,8.93-7.99-7.47-13.33-15.91-25.45-15.91-25.45,0,0-27.16,39.02-27.16,54.02,0,4.34,1.04,8.42,2.85,12.06,6.42-7.63,13.25-14.84,20.2-21.94l11.09-10.7Z"/><path class="cls-1" d="m64.82,45.36l-10.7,11.09c-7.35,7.18-14.8,14.26-22.72,20.87-.1.09-.21.17-.31.26,4.89,4.75,11.55,7.69,18.91,7.69,15,0,27.16-12.16,27.16-27.16,0-4.73-2.7-11.84-6.39-19.36-1.98,2.21-3.99,4.39-5.95,6.63Z"/><path class="cls-1" d="m75.03,33.78c6.66-7.87,13.02-16.03,18.56-25.03-9,5.53-17.16,11.89-25.03,18.56-.9.72-1.78,1.47-2.65,2.22,1.71,3.05,3.37,6.16,4.86,9.21,1.45-1.62,2.89-3.26,4.26-4.96Z"/><path class="cls-1" d="m25.69,70.16c-.22.26-.45.52-.67.78-6.65,7.87-13.03,16.02-18.6,24.98,8.84-5.5,16.89-11.78,24.67-18.35-2.2-2.14-4.02-4.64-5.4-7.42Z"/></svg>