<svg xmlns="http://www.w3.org/2000/svg" viewBox="0 0 53.86 53.86"><defs><style>.cls-1{fill:#1d1d1b;}</style></defs><g id="Ebene_2" data-name="Ebene 2"><g id="Ebene_1-2" data-name="Ebene 1"><path class="cls-1" d="M26.93,22.76h-.27a2.65,2.65,0,1,1-3.75,3.05,4.57,4.57,0,0,0-.15,1.11,4.17,4.17,0,1,0,4.17-4.17Z"/><path class="cls-1" d="M26.93,19.55a12.86,12.86,0,0,0-11.78,7.38A12.85,12.85,0,0,0,26.93,34.3a12.88,12.88,0,0,0,11.78-7.37A12.88,12.88,0,0,0,26.93,19.55Zm0,13.43a6,6,0,1,1,6-6A6.05,6.05,0,0,1,26.93,33Z"/><path class="cls-1" d="M26.93,0A26.93,26.93,0,1,0,53.86,26.93,26.93,26.93,0,0,0,26.93,0ZM42.14,33.48a2.47,2.47,0,1,1,0,2H40.2V37.6l-2.54,2.54H35.52V42.2a2.47,2.47,0,1,1-2,0V40.14H27.92V42.2a2.47,2.47,0,1,1-2,0V40.14H20.31V42.2a2.47,2.47,0,1,1-2,0V40.14H16.2L13.65,37.6V35.46H11.72a2.46,2.46,0,1,1,0-2h1.93V27.86H11.72a2.47,2.47,0,1,1,0-2h1.93V20.25H11.72a2.47,2.47,0,1,1,0-2h1.93V16.14l2.55-2.55h2.14V11.66a2.47,2.47,0,1,1,2,0v1.93h5.63V11.66a2.46,2.46,0,1,1,2,0v1.93h5.63V11.66a2.47,2.47,0,1,1,2,0v1.93h2.14l2.54,2.55v2.14h1.94a2.47,2.47,0,1,1,0,2H40.2v5.63h1.94a2.46,2.46,0,1,1,0,2H40.2v5.62Z"/></g></g></svg>