<svg xmlns="http://www.w3.org/2000/svg" viewBox="0 0 53.86 53.86"><defs><style>.cls-1{fill:#1d1d1b;}</style></defs><g id="Ebene_2" data-name="Ebene 2"><g id="Ebene_1-2" data-name="Ebene 1"><path class="cls-1" d="M26.93,0A26.93,26.93,0,1,0,53.86,26.93,26.93,26.93,0,0,0,26.93,0Zm-1,48.5-4.48-5.18L17,48.5V26.93l2.87,5h6.09Zm11-21.27V50l-4.48-5.18L28,50V31.9H34l2.87-5Zm-3.26,1.94H20.21L13.49,17.53,20.21,5.9H33.65l6.71,11.63Z"/><path class="cls-1" d="M31.6,12a7.2,7.2,0,0,1,2.46,4.26L36.52,12Z"/><path class="cls-1" d="M22.25,12H17.34l2.46,4.26A7.24,7.24,0,0,1,22.25,12Z"/><path class="cls-1" d="M26.93,24.78a7.19,7.19,0,0,1-2.46-.43l2.46,4.25,2.45-4.25A7.09,7.09,0,0,1,26.93,24.78Z"/><circle class="cls-1" cx="26.93" cy="17.53" r="5.84"/></g></g></svg>