<svg xmlns="http://www.w3.org/2000/svg" viewBox="0 0 53.86 53.86"><defs><style>.cls-1{fill:#1d1d1b;}</style></defs><g id="Ebene_2" data-name="Ebene 2"><g id="Ebene_1-2" data-name="Ebene 1"><path class="cls-1" d="M26.93,0A26.93,26.93,0,1,0,53.86,26.93,26.93,26.93,0,0,0,26.93,0Zm8,7.47a6.72,6.72,0,1,1-6.72,6.72A6.72,6.72,0,0,1,35,7.47Zm-16,7.38a6.72,6.72,0,1,1-6.72,6.72A6.72,6.72,0,0,1,18.91,14.85ZM30.63,42.52H7.19c0-6.48,5.24-12.91,11.72-12.91a10.31,10.31,0,0,1,5,1.35c1.64-4.8,5.95-8.73,11-8.73,6.47,0,11.72,6.43,11.72,12.91H28.34A13.5,13.5,0,0,1,30.63,42.52Z"/></g></g></svg>