<svg xmlns="http://www.w3.org/2000/svg" viewBox="0 0 53.86 53.86"><defs><style>.cls-1{fill:#1d1d1b;}</style></defs><g id="Ebene_2" data-name="Ebene 2"><g id="Ebene_1-2" data-name="Ebene 1"><polygon class="cls-1" points="25.47 20.11 28.68 21.58 31.83 18.43 28.36 17.21 25.47 20.11"/><polygon class="cls-1" points="22.03 35.43 25.49 36.65 28.39 33.75 25.18 32.28 22.03 35.43"/><path class="cls-1" d="M26.93,0A26.93,26.93,0,1,0,53.86,26.93,26.93,26.93,0,0,0,26.93,0ZM24.52,49.4l-4.86-1-2.95-2.94,1.84-1.83-11.42-4,3-8.36L20.77,35l4.15-4.14,4.38,2,9.63-9.63,5.89,5.89ZM43.77,22.66,33.09,18.88,28.94,23l-4.38-2-9.63,9.63L9,24.76l20.3-20.3,4.86,1,2.94,2.95-1.83,1.83,11.42,4Z"/></g></g></svg>